<?xml version="1.0" standalone="no"?>
<!DOCTYPE svg PUBLIC "-//W3C//DTD SVG 1.1//EN" "http://www.w3.org/Graphics/SVG/1.1/DTD/svg11.dtd" >
<!--
2013-9-30: Created.
-->
<svg>
<metadata>
Created by iconfont
</metadata>
<defs>

<font id="font_family" horiz-adv-x="1024" >
  <font-face
    font-family="font_family"
    font-weight="500"
    font-stretch="normal"
    units-per-em="1024"
    ascent="896"
    descent="-128"
  />
    <missing-glyph />
    
    <glyph glyph-name="shouquanbiaoshi" unicode="&#59156;" d="M397.288619 51.373528L167.135212 180.697824c-7.306457 2.191937-14.612915 0-18.996789-5.11452L50.231894 19.225116l-1.461291-5.11452v-4.383875c0.730646-6.575812 5.845166-12.420978 13.882269-12.420977l132.246878-7.306458c5.11452 0 7.306457-2.191937 9.498395-5.11452l81.101677-107.404923c7.306457-7.306457 18.996789-7.306457 24.111309 0l92.792008 154.16625c4.383874 7.306457 1.461291 14.612915-5.11452 19.727435z m576.479487-29.225829l-97.906529 156.358188c-5.11452 7.306457-12.420978 9.498395-18.996789 5.11452l-229.422762-129.324296c-7.306457-5.11452-9.498395-12.420978-5.11452-18.996789l92.792009-154.16625c5.11452-7.306457 16.804852-7.306457 24.111309 0l80.371031 106.674277c2.191937 2.191937 5.11452 5.11452 9.498395 5.11452l132.246878 7.306458c12.420978 0 16.804852 11.690332 12.420978 21.919372z m-81.101677 276.184088V647.58045a73.064574 73.064574 0 0 1-36.532287 63.566179L546.34035 886.501605c-21.919372 12.420978-51.145202 12.420978-73.064574 0L164.943275 713.338566c-21.919372-12.420978-36.532287-36.532287-36.532287-60.643596v-349.979308c0-24.111309 14.612915-48.953264 36.532287-60.643596l309.793792-175.354977c21.919372-12.420978 51.145202-12.420978 73.064574 0l307.601855 170.971102c22.650018 11.690332 37.262933 36.532287 37.262933 60.643596z m-182.661434 263.763111L529.535498 300.523725c-5.11452-7.306457-14.612915-12.420978-24.11131-12.420978s-19.727435 5.11452-24.841955 12.420978L306.688548 562.094898c-10.22904 12.420978-5.11452 32.148412 6.575812 39.45487 12.420978 7.306457 32.148412 5.11452 39.454869-7.306457L501.77096 369.93507 658.129147 596.435248c10.22904 12.420978 27.764538 16.804852 39.45487 7.306457 19.727435-12.420978 21.919372-29.225829 12.420978-41.646807z"  horiz-adv-x="1024" />

    
    <glyph glyph-name="beifen" unicode="&#59063;" d="M892.342857 482.742857c2.194286 11.702857 3.657143 24.137143 3.657143 36.571429 0 92.891429-71.68 168.96-160.182857 168.96-13.897143 0-27.794286-2.194286-40.96-5.851429C669.988571 763.611429 597.577143 822.857143 512 822.857143c-87.04 0-160.914286-61.44-184.32-145.554286-22.674286 6.582857-46.811429 10.24-71.68 10.24C114.834286 687.542857 0 566.857143 0 417.645714s114.834286-269.897143 256-269.897143h128V-54.857143h256v202.605714h223.817143c88.502857 0 160.182857 75.337143 160.182857 168.96 0 82.651429-57.051429 152.137143-131.657143 166.034286zM576.365714 215.04v-202.605714H447.634286V215.04H288.182857L512 451.291429l223.817143-236.251429H576.365714z"  horiz-adv-x="1024" />

    
    <glyph glyph-name="fengge" unicode="&#59064;" d="M152.137143 841.142857l-34.377143-169.691428h699.977143l-21.942857-109.714286H95.817143L62.171429 392.777143h699.977142l-39.497142-193.828572-282.331429-92.16-244.297143 92.16 16.822857 84.114286H40.96L0 79.725714l404.48-152.868571 465.92 152.868571L1024 841.142857H152.137143z"  horiz-adv-x="1024" />

    
    <glyph glyph-name="huigun" unicode="&#59065;" d="M0 512h384L0 896v-384zM670.72 329.142857h-190.171429v263.314286h87.771429v-175.542857h102.4zM874.057143 746.057143C781.165714 838.948571 653.897143 896 512 896S242.834286 838.948571 149.942857 746.057143l64.365714-64.365714A419.547429 419.547429 0 0 0 512 804.571429 419.547429 419.547429 0 0 0 932.571429 384 419.547429 419.547429 0 0 0 512-36.571429c-116.297143 0-221.622857 46.811429-297.691429 122.88l-64.365714-64.365714C242.834286-70.948571 370.102857-128 512-128s269.165714 57.051429 362.057143 149.942857C966.948571 114.834286 1024 242.102857 1024 384s-57.051429 269.165714-149.942857 362.057143z"  horiz-adv-x="1024" />

    
    <glyph glyph-name="mobandaochu" unicode="&#59066;" d="M0-2.194286h1024v-61.44H0v61.44z m1024 123.611429v-61.44H0v61.44l128 247.222857h256V245.028571h256V368.64h256L1024 121.417143zM223.817143 553.691429L512 831.634286l288.182857-277.942857H576.365714v-247.222858H447.634286V553.691429H223.817143z"  horiz-adv-x="1024" />

    
    <glyph glyph-name="gaojishezhi" unicode="&#59067;" d="M1006.445714 460.068571l-101.668571 24.868572c-9.508571 35.108571-24.137143 70.948571-42.422857 102.4l54.125714 89.965714c6.582857 10.24 6.582857 22.674286 0 32.914286l-71.68 69.485714a23.478857 23.478857 0 0 1-31.451429 0l-94.354285-48.274286a411.794286 411.794286 0 0 1-103.862857 41.691429L588.8 876.251429C586.605714 887.954286 575.634286 896 562.468571 896H465.92C453.485714 896 443.245714 887.954286 438.857143 876.251429l-24.868572-103.131429c-37.302857-7.314286-73.142857-21.942857-104.594285-41.691429l-90.697143 54.125715a29.915429 29.915429 0 0 1-32.914286 0L117.028571 710.217143c-8.045714-9.508571-8.045714-23.405714 0-32.914286l52.662858-89.965714c-18.285714-31.451429-32.914286-67.291429-42.422858-102.4l-103.131428-24.868572c-13.897143-1.462857-24.137143-13.165714-24.137143-26.331428v-99.474286c0-11.702857 8.045714-21.942857 19.748571-24.868571l103.862858-26.331429c8.777143-35.108571 21.942857-69.485714 40.96-102.4l-47.542858-89.965714c-8.045714-9.508571-8.045714-22.674286 0-32.914286l70.217143-69.485714c8.777143-6.582857 22.674286-6.582857 32.914286 0l89.234286 49.737143c31.451429-19.748571 67.291429-34.377143 103.131428-43.154286l24.868572-103.131429c4.388571-11.702857 14.628571-19.748571 27.062857-19.748571h98.011428c13.165714 0 24.137143 8.045714 26.331429 19.748571l26.331429 103.131429c35.84 8.777143 71.68 23.405714 103.862857 43.154286l89.965714-55.588572c9.508571-6.582857 22.674286-6.582857 33.645714 0l70.217143 71.68c6.582857 8.777143 6.582857 21.942857 0 31.451429l-54.857143 90.697143c20.48 31.451429 34.377143 65.828571 42.422857 103.131428l102.4 24.868572c13.165714 2.925714 21.211429 13.165714 21.211429 24.868571V433.737143c0 11.702857-6.582857 21.942857-17.554286 26.331428zM514.925714 230.4c-61.44-2.194286-118.491429 35.108571-143.36 92.16-24.868571 57.051429-13.165714 123.611429 29.988572 168.96 44.617143 44.617143 110.445714 58.514286 167.497143 34.377143 58.514286-23.405714 96.548571-79.725714 96.548571-141.897143 0-84.114286-65.828571-152.137143-150.674286-153.6z"  horiz-adv-x="1024" />

    
    <glyph glyph-name="mobanshangchuan" unicode="&#59068;" d="M447.634286 349.622857h128V623.177143h191.634285L512 896 256 623.177143h191.634286v-273.554286z m192.365714 153.6v-105.325714l293.302857-116.297143L512 114.102857 90.697143 281.6l293.302857 116.297143V503.222857L0 349.622857v-272.822857L512-128l512 204.8V349.622857l-384 153.6z"  horiz-adv-x="1024" />

    
    <glyph glyph-name="mobanxiazai" unicode="&#59069;" d="M512 349.622857l256 272.822857H576.365714V896H447.634286v-272.822857H256L512 349.622857z m232.594286 111.908572L672.914286 384.731429l260.388571-103.131429L512 114.102857 90.697143 281.6 351.085714 384.731429l-71.68 76.8L0 349.622857v-272.822857L512-128l512 204.8V349.622857l-279.405714 111.908572z"  horiz-adv-x="1024" />

    
    <glyph glyph-name="mobandaoru" unicode="&#59070;" d="M896 384h-160.182857L512 160.182857 288.182857 384H128L0 128v-64.365714h1024v64.365714L896 384zM0 0h1024v-64.365714H0v64.365714z m576.365714 575.634286V831.634286H447.634286v-256H223.817143L512 288.182857l288.182857 288.182857H576.365714z"  horiz-adv-x="1024" />

    
    <glyph glyph-name="shanchucanshubiao" unicode="&#59071;" d="M0 831.634286v-877.714286h662.674286c-21.942857 20.48-39.497143 45.348571-51.931429 73.142857H365.714286v133.851429H586.605714c2.194286 25.6 8.045714 49.737143 18.285715 73.142857H365.714286V391.314286h256v-123.611429c18.285714 31.451429 43.154286 57.782857 73.142857 78.262857V391.314286h219.428571v-9.508572c26.331429-7.314286 51.2-19.748571 73.142857-35.84V831.634286H0z m292.571429-804.571429h-219.428572v133.851429h219.428572v-133.851429z m0 206.994286h-219.428572V391.314286h219.428572v-157.257143z m0 230.4h-219.428572V612.205714h219.428572V464.457143z m329.142857 0h-256V612.205714h256V464.457143z m292.571428 0h-219.428571V612.205714h219.428571V464.457143zM969.874286 266.24c-71.68 71.68-187.245714 71.68-258.925715 0-70.948571-70.948571-71.68-187.245714 0-258.925714s187.245714-70.948571 258.925715 0c71.68 71.68 71.68 187.245714 0 258.925714z m-86.308572-197.485714l-42.422857 42.422857-42.422857-42.422857c-7.314286-7.314286-18.285714-7.314286-25.6 0-7.314286 7.314286-7.314286 18.285714 0 25.6l42.422857 42.422857-42.422857 42.422857a19.017143 19.017143 0 0 0 0 25.6c7.314286 7.314286 19.017143 6.582857 25.6 0l42.422857-42.422857 42.422857 42.422857c7.314286 7.314286 18.285714 7.314286 25.6 0 7.314286-7.314286 7.314286-18.285714 0-25.6l-42.422857-42.422857 42.422857-42.422857c6.582857-6.582857 7.314286-18.285714 0-25.6-6.582857-7.314286-19.017143-7.314286-25.6 0z"  horiz-adv-x="1032" />

    
    <glyph glyph-name="quanbiaosaomiao" unicode="&#59072;" d="M0 822.857143v-877.714286h650.971429a267.995429 267.995429 0 0 0-84.114286 73.142857H365.714286v134.582857h148.48c-2.925714 24.137143-2.194286 48.274286 1.462857 73.142858H365.714286V382.537143h231.862857c44.617143 41.691429 100.205714 67.291429 160.914286 73.142857h-63.634286V603.428571h219.428571v-147.748571h-101.668571c62.902857-5.851429 121.417143-33.645714 166.765714-78.262857 2.925714-2.925714 5.851429-5.851429 8.045714-8.777143V822.857143H0z m292.571429-804.571429h-219.428572v134.582857h219.428572V18.285714z m0 207.725715h-219.428572V382.537143h219.428572v-156.525714z m0 229.668571h-219.428572V603.428571h219.428572v-147.748571z m329.142857 0h-256V603.428571h256v-147.748571zM1015.222857-2.194286l-67.291428 67.291429c24.868571 34.377143 38.765714 75.337143 38.765714 118.491428 0 53.394286-21.211429 103.862857-58.514286 141.897143a200.850286 200.850286 0 0 1-283.794286 0 200.850286 200.850286 0 0 1 0-283.794285 201.142857 201.142857 0 0 1 260.388572-19.748572l67.291428-67.291428c5.851429-5.851429 13.897143-8.777143 21.942858-8.777143 8.045714 0 16.091429 2.925714 21.942857 8.777143 10.971429 11.702857 10.971429 31.451429-0.731429 43.154285m-327.68 87.04a139.483429 139.483429 0 0 0 98.011429 237.714286c35.84 0 70.948571-13.897143 98.011428-40.96 26.331429-26.331429 40.96-61.44 40.96-98.011429 0-37.302857-14.628571-71.68-40.96-98.011428-54.125714-54.857143-141.897143-54.857143-196.022857-0.731429"  horiz-adv-x="1025" />

    
    <glyph glyph-name="shengchengzhenshibiao" unicode="&#59073;" d="M0 822.857143v-877.714286h788.48v29.988572H585.142857V18.285714H365.714286v133.851429h219.428571v73.142857H365.714286V382.537143h256v-138.24h73.142857V382.537143h219.428571v-57.051429l73.142857-74.605714V822.857143H0z m292.571429-804.571429H73.142857v133.851429h219.428572V18.285714z m0 206.994286H73.142857V382.537143h219.428572v-157.257143z m0 230.4H73.142857V603.428571h219.428572v-147.748571z m329.142857 0H365.714286V603.428571h256v-147.748571z m292.571428 0h-219.428571V603.428571h219.428571v-147.748571zM861.622857 274.285714L1024 109.714286 861.622857-54.857143v103.131429H658.285714V171.154286h203.337143z"  horiz-adv-x="1024" />

    
    <glyph glyph-name="shangchuanbanben" unicode="&#59074;" d="M512 179.931429H0v-271.36h1024V179.931429H512z m443.977143-135.314286H819.2v68.022857h136.777143v-68.022857z m-716.8 543.451428L512 859.428571l272.822857-271.36H614.4v-339.382857H409.6V588.068571H239.177143z"  horiz-adv-x="1024" />

    
    <glyph glyph-name="shengchengcanshubiao" unicode="&#59075;" d="M0 822.857143v-877.714286h659.017143c-18.285714 17.554286-34.377143 38.034286-46.811429 60.708572a64.804571 64.804571 0 0 0-5.851428 12.434285H365.714286v133.851429h216.502857c2.194286 25.6 8.777143 49.737143 19.017143 73.142857H365.714286V381.805714h256v-118.491428c18.285714 29.257143 43.154286 55.588571 71.68 74.605714 0.731429 0 0.731429 0.731429 1.462857 0.731429v43.154285h43.885714v73.142857h-43.885714V602.697143h219.428571v-147.748572h-70.217143l125.805715-123.611428 17.554285 16.091428V822.857143H0z m292.571429-804.571429H73.142857v133.851429h219.428572V18.285714z m0 206.994286H73.142857V381.805714h219.428572v-156.525714z m0 229.668571H73.142857V602.697143h219.428572v-147.748572z m329.142857 0H365.714286V602.697143h256v-147.748572zM811.885714 384l114.834286-113.371429-114.834286-111.908571V251.611429a129.536 129.536 0 0 1-87.771428-67.291429c-9.508571-17.554286-14.628571-38.034286-13.897143-57.782857 0-20.48 5.12-40.228571 13.897143-57.782857 9.508571-17.554286 22.674286-32.914286 38.765714-45.348572 16.091429-11.702857 35.108571-19.748571 54.857143-22.674285l4.388571-0.731429V-54.857143l-5.851428 0.731429c-29.257143 3.657143-57.782857 13.897143-82.651429 30.72-24.137143 16.091429-43.885714 38.034286-58.514286 63.634285-14.628571 26.331429-22.674286 55.588571-21.942857 86.308572 0 29.988571 7.314286 59.245714 21.942857 86.308571 13.897143 25.6 34.377143 47.542857 58.514286 64.365715 23.405714 16.091429 49.737143 26.331429 77.531429 29.988571L811.885714 384z m155.794286-240.64l-0.731429 4.388571c-3.657143 20.48-10.971429 38.034286-21.942857 52.662858l-2.925714 3.657142 40.96 38.034286 3.657143-4.388571c19.748571-25.6 32.182857-55.588571 36.571428-88.502857l0.731429-5.851429h-56.32z m-106.788571-141.897143c20.48 3.657143 38.765714 10.971429 54.125714 21.942857l3.657143 2.925715 40.228571-40.228572-5.12-3.657143c-26.331429-19.017143-56.32-31.451429-90.697143-35.84l-6.582857-1.462857v55.588572l4.388572 0.731428z m84.114285 51.931429c11.702857 14.628571 19.017143 32.182857 21.942857 52.662857l0.731429 4.388571H1024l-0.731429-5.851428c-4.388571-32.182857-16.822857-62.902857-36.571428-88.502857l-3.657143-5.12-40.96 38.765714 2.925714 3.657143z"  horiz-adv-x="1024" />

    
    <glyph glyph-name="shipin" unicode="&#59076;" d="M0 896v-1024h1024V896H0z m191.634286-938.422857H64.365714V128h128v-170.422857z m0 340.845714H64.365714V469.577143h128v-171.154286z m0 341.577143H64.365714V810.422857h128V640z m576.365714-682.422857h-512V810.422857h512v-852.845714z m191.634286 0h-128V128h128v-170.422857z m0 340.845714h-128V469.577143h128v-171.154286z m0 341.577143h-128V810.422857h128V640z"  horiz-adv-x="1024" />

    
    <glyph glyph-name="shuaxin" unicode="&#59077;" d="M889.417143 729.965714A512.365714 512.365714 0 0 1 512 896C228.937143 896 0 667.062857 0 384h95.817143c0 229.668571 186.514286 416.182857 416.182857 416.182857 122.88 0 233.325714-53.394286 309.394286-138.24L672.182857 512H1024V863.817143l-134.582857-133.851429zM928.182857 384c0-229.668571-186.514286-416.182857-416.182857-416.182857-122.88 0-233.325714 53.394286-309.394286 138.24l149.942857 149.942857H0v-351.817143l134.582857 134.582857A511.634286 511.634286 0 0 1 1024 384h-95.817143z"  horiz-adv-x="1024" />

    
    <glyph glyph-name="xiazaibanben" unicode="&#59078;" d="M784.822857 452.022857L512 179.931429 239.177143 452.022857H409.6V859.428571h204.8v-407.405714h170.422857zM512 179.931429H0v-271.36h1024V179.931429H512z m443.977143-135.314286H819.2v68.022857h136.777143v-68.022857z"  horiz-adv-x="1024" />

    
    <glyph glyph-name="shanchulan" unicode="&#59079;" d="M1024-128h-65.828571v58.514286h7.314285v7.314285h58.514286zM820.662857-69.485714v-58.514286h68.754286v58.514286h-68.754286z m-136.777143 0v-58.514286h68.022857v58.514286h-68.022857z m-412.525714 0v-58.514286h68.754286v58.514286h-68.754286z m-136.777143 0v-58.514286h68.754286v58.514286h-68.754286zM65.828571-128H0v65.828571h58.514286v-7.314285h7.314285zM0 45.348571h58.514286v-53.394285H0zM58.514286 98.742857H0V164.571429h65.828571v-58.514286H58.514286zM820.662857 164.571429v-58.514286h68.754286V164.571429h-68.754286z m-136.777143 0v-58.514286h68.754286V164.571429h-68.754286z m-411.794285 0v-58.514286h68.022857V164.571429h-68.022857z m-137.508572 0v-58.514286h68.754286V164.571429h-68.754286zM1024 98.742857h-58.514286v7.314286h-7.314285V164.571429h65.828571zM965.485714 45.348571h58.514286v-53.394285h-58.514286zM965.485714 837.485714v-175.542857H58.514286V837.485714h906.971428M1024 896H0v-292.571429h1024V896zM965.485714 470.308571v-175.542857H58.514286v175.542857h906.971428m58.514286 58.514286H0v-292.571428h1024v292.571428zM636.342857-64.365714L553.691429 18.285714l82.651428 82.651429-41.691428 41.691428L512 59.977143 429.348571 142.628571l-41.691428-41.691428L470.308571 18.285714 387.657143-64.365714l41.691428-41.691429L512-23.405714l82.651429-82.651429z"  horiz-adv-x="1024" />

    
    <glyph glyph-name="shujuku1" unicode="&#59080;" d="M0 793.6C0 849.92 46.08 896 102.4 896h819.2c56.32 0 102.4-46.08 102.4-102.4v-102.4c0-56.32-46.08-102.4-102.4-102.4H102.4C46.08 588.8 0 634.88 0 691.2V793.6z m0-358.4c0 56.32 46.08 102.4 102.4 102.4h819.2c56.32 0 102.4-46.08 102.4-102.4v-102.4c0-56.32-46.08-102.4-102.4-102.4H102.4C46.08 230.4 0 276.48 0 332.8V435.2z m0-358.4c0 56.32 46.08 102.4 102.4 102.4h819.2c56.32 0 102.4-46.08 102.4-102.4v-102.4c0-56.32-46.08-102.4-102.4-102.4H102.4C46.08-128 0-81.92 0-25.6v102.4z m614.4 716.8v-102.4h102.4V793.6H614.4z m204.8 0v-102.4h102.4V793.6h-102.4zM614.4 435.2v-102.4h102.4V435.2H614.4z m204.8 0v-102.4h102.4V435.2h-102.4z m-204.8-358.4v-102.4h102.4v102.4H614.4z m204.8 0v-102.4h102.4v102.4h-102.4z"  horiz-adv-x="1024" />

    
    <glyph glyph-name="tupiantihuan" unicode="&#59081;" d="M966.948571 725.577143h-57.051428v56.32c0 31.451429-25.6 57.051429-57.051429 57.051428H57.051429c-31.451429 0-57.051429-25.6-57.051429-57.051428v-682.422857c0-31.451429 25.6-57.051429 57.051429-57.051429h57.051428v-57.051428c0-31.451429 25.6-57.051429 57.051429-57.051429h796.525714c31.451429 0 57.051429 25.6 57.051429 57.051429V668.525714a58.221714 58.221714 0 0 1-57.782858 57.051429z m-852.845714-57.051429v-569.051428H57.051429V781.897143h796.525714v-57.051429H170.422857a55.881143 55.881143 0 0 1-56.32-56.32z m852.845714-682.422857H170.422857V668.525714h796.525714v-682.422857zM853.577143 525.897143c0-46.811429-38.034286-85.577143-85.577143-85.577143S682.422857 479.085714 682.422857 525.897143s38.034286 85.577143 85.577143 85.577143 85.577143-38.034286 85.577143-85.577143zM909.897143 42.422857H227.474286v114.102857l198.948571 341.577143 227.474286-284.525714h57.051428L909.897143 384v-341.577143z"  horiz-adv-x="1024" />

    
    <glyph glyph-name="yinpin" unicode="&#59082;" d="M958.949322 896H1023.269094v-735.291934c0-88.439686-100.13419-160.068522-223.657388-160.068523s-223.657388 71.628837-223.657388 160.068523 100.13419 160.068522 223.657388 160.068522c62.857959 0 119.137759-18.272662 160.068522-48.239829V640.182727l-511.634546-114.021414v-494.092791c0-88.439686-100.13419-160.068522-223.657388-160.068522S0-55.640257 0 32.799429s100.13419 160.068522 223.657388 160.068522c62.857959 0 119.137759-18.272662 160.068522-48.239828V768.091363L958.949322 896z"  horiz-adv-x="1024" />

    
    <glyph glyph-name="yunhangSQL" unicode="&#59083;" d="M360.594286 762.88C360.594286 836.022857 420.571429 896 494.445714 896s133.12-59.977143 133.12-133.12-59.977143-133.851429-133.12-133.851429-133.851429 59.977143-133.851428 133.851429z m424.228571-400.822857c0 60.708571 49.005714 109.714286 109.714286 109.714286s109.714286-49.005714 109.714286-109.714286-49.005714-109.714286-109.714286-109.714286-109.714286 49.737143-109.714286 109.714286z m-106.788571-283.062857c0 54.857143 44.617143 99.474286 99.474285 99.474285 54.857143 0 99.474286-44.617143 99.474286-99.474285s-44.617143-99.474286-99.474286-99.474286c-54.857143 0.731429-99.474286 44.617143-99.474285 99.474286z m-273.554286-117.028572a89.965714 89.965714 0 1 0 179.931429 0 89.965714 89.965714 0 1 0-179.931429 0z m-275.017143 117.028572a81.481143 81.481143 0 0 0 163.108572 0 81.481143 81.481143 0 0 0-163.108572 0zM19.748571 362.057143c0 40.96 32.914286 73.874286 73.874286 73.874286s73.874286-32.914286 73.874286-73.874286-32.914286-73.874286-73.874286-73.874286S19.748571 321.828571 19.748571 362.057143z m124.342858 283.062857a66.925714 66.925714 0 0 0 133.851428 0c0-36.571429-29.988571-66.56-66.56-66.56s-67.291429 29.988571-67.291428 66.56z m754.102857 0c0-66.56-54.125714-120.685714-120.685715-120.685714s-121.417143 54.125714-121.417142 120.685714c0 66.56 54.125714 120.685714 120.685714 120.685714s121.417143-54.125714 121.417143-120.685714z"  horiz-adv-x="1024" />

    
    <glyph glyph-name="tianjialan" unicode="&#59084;" d="M1024-128h-65.828571v58.514286h7.314285v7.314285h58.514286zM820.662857-69.485714v-58.514286h68.754286v58.514286h-68.754286z m-136.777143 0v-58.514286h68.022857v58.514286h-68.022857z m-412.525714 0v-58.514286h68.754286v58.514286h-68.754286z m-136.777143 0v-58.514286h68.754286v58.514286h-68.754286zM65.828571-128H0v65.828571h58.514286v-7.314285h7.314285zM0 45.348571h58.514286v-53.394285H0zM58.514286 98.742857H0V164.571429h65.828571v-58.514286H58.514286zM820.662857 164.571429v-58.514286h68.754286V164.571429h-68.754286z m-136.777143 0v-58.514286h68.754286V164.571429h-68.754286z m-411.794285 0v-58.514286h68.022857V164.571429h-68.022857z m-137.508572 0v-58.514286h68.754286V164.571429h-68.754286zM1024 98.742857h-58.514286v7.314286h-7.314285V164.571429h65.828571zM965.485714 45.348571h58.514286v-53.394285h-58.514286zM965.485714 837.485714v-175.542857H58.514286V837.485714h906.971428M1024 896H0v-292.571429h1024V896zM965.485714 471.771429v-175.542858H58.514286V471.771429h906.971428M1024 530.285714H0v-292.571428h1024V530.285714zM658.285714 47.542857H541.257143V164.571429h-58.514286v-117.028572H365.714286v-58.514286h117.028571V-128h58.514286v117.028571H658.285714z"  horiz-adv-x="1024" />

    
    <glyph glyph-name="xinjianSQL" unicode="&#59085;" d="M531.748571 423.497143A26.112 26.112 0 0 1 512 432.274286c-7.314286 0-13.897143-2.925714-19.017143-8.777143-5.12-5.12-8.045714-12.434286-8.045714-20.48v-146.285714c0-7.314286 2.925714-14.628571 8.045714-20.48 5.12-5.851429 11.702857-8.045714 19.017143-8.045715 8.045714 0 14.628571 2.194286 19.748571 8.045715a31.451429 31.451429 0 0 1 8.045715 20.48v146.285714c0 8.045714-2.925714 15.36-8.045715 20.48z m0 0A26.112 26.112 0 0 1 512 432.274286c-7.314286 0-13.897143-2.925714-19.017143-8.777143-5.12-5.12-8.045714-12.434286-8.045714-20.48v-146.285714c0-7.314286 2.925714-14.628571 8.045714-20.48 5.12-5.851429 11.702857-8.045714 19.017143-8.045715 8.045714 0 14.628571 2.194286 19.748571 8.045715a31.451429 31.451429 0 0 1 8.045715 20.48v146.285714c0 8.045714-2.925714 15.36-8.045715 20.48z m376.685715 106.057143h-24.868572V650.24c0 5.12-1.462857 9.508571-5.12 13.165714L680.96 888.685714V889.417143C679.497143 890.88 678.034286 892.342857 675.84 893.074286L671.451429 895.268571h-0.731429C669.257143 896 667.794286 896 666.331429 896H180.662857c-21.942857 0-40.228571-18.285714-40.228571-40.228571v-326.217143h-24.137143c-32.182857 0-57.782857-25.6-57.782857-57.051429v-298.422857c0-32.182857 25.6-57.782857 57.782857-57.782857h24.137143v-204.068572c0-22.674286 18.285714-40.228571 40.228571-40.228571h662.674286c21.942857 0 40.228571 17.554286 40.228571 40.228571v204.068572h24.868572c31.451429 0 57.051429 25.6 57.051428 57.782857V472.502857c0 31.451429-25.6 57.051429-57.051428 57.051429z m-65.097143-606.354286H180.662857v193.097143h662.674286v-193.097143zM218.697143 234.057143c5.851429-4.388571 11.702857-5.851429 19.017143-5.851429 9.508571 0 16.091429 2.194286 20.48 7.314286 4.388571 5.12 6.582857 12.434286 6.582857 21.942857 0 7.314286-2.925714 13.897143-8.045714 20.48l-57.782858 69.485714a64.365714 64.365714 0 0 0-16.091428 40.96v14.628572c0 16.091429 5.851429 29.988571 16.091428 41.691428a52.662857 52.662857 0 0 0 38.765715 16.822858h27.062857c34.377143 0 51.931429-19.017143 54.125714-58.514286h-27.062857c-2.194286 19.748571-10.971429 29.988571-25.6 29.988571-9.508571 0-16.822857-2.925714-21.211429-8.045714-5.12-4.388571-7.314286-11.702857-7.314285-21.942857 0-7.314286 2.194286-13.897143 8.045714-20.48l57.782857-69.485714c10.24-13.165714 15.36-26.331429 15.36-40.96v-15.36c0-15.36-5.12-29.257143-15.36-40.96-10.971429-11.702857-24.137143-17.554286-38.765714-17.554286h-27.062857c-18.285714 0-32.182857 5.12-40.96 14.628571-9.508571 10.24-13.897143 24.868571-13.897143 43.885715h27.794286c-0.731429-1.462857-0.731429-3.657143-0.731429-4.388572 0-8.045714 2.925714-13.897143 8.777143-18.285714z m375.222857-35.84v-29.257143h-40.96c-16.091429 0-24.868571 10.24-27.062857 29.257143h-40.96c-14.628571 0-27.794286 5.851429-38.034286 17.554286a56.832 56.832 0 0 0-16.091428 40.96v146.285714a58.514286 58.514286 0 0 0 16.091428 41.691428c10.24 10.971429 23.405714 16.822857 38.034286 16.822858h54.857143c14.628571 0 27.794286-5.851429 38.034285-16.822858a58.514286 58.514286 0 0 0 16.091429-41.691428v-146.285714c0-34.377143-18.285714-53.394286-54.125714-58.514286h54.125714z m247.222857 29.988571v-29.988571H705.097143v263.314286h54.857143v-233.325715h81.188571z m2.194286 301.348572H180.662857V855.771429h465.188572v-205.531429c0-10.971429 9.508571-19.748571 20.48-19.748571h177.005714v-100.937143zM512 432.274286c-7.314286 0-13.897143-2.925714-19.017143-8.777143-5.12-5.12-8.045714-12.434286-8.045714-20.48v-146.285714c0-7.314286 2.925714-14.628571 8.045714-20.48 5.12-5.851429 11.702857-8.045714 19.017143-8.045715 8.045714 0 14.628571 2.194286 19.748571 8.045715a31.451429 31.451429 0 0 1 8.045715 20.48v146.285714c0 8.045714-2.925714 15.36-8.045715 20.48A26.112 26.112 0 0 1 512 432.274286z m19.748571-8.777143A26.112 26.112 0 0 1 512 432.274286c-7.314286 0-13.897143-2.925714-19.017143-8.777143-5.12-5.12-8.045714-12.434286-8.045714-20.48v-146.285714c0-7.314286 2.925714-14.628571 8.045714-20.48 5.12-5.851429 11.702857-8.045714 19.017143-8.045715 8.045714 0 14.628571 2.194286 19.748571 8.045715a31.451429 31.451429 0 0 1 8.045715 20.48v146.285714c0 8.045714-2.925714 15.36-8.045715 20.48z m0 0A26.112 26.112 0 0 1 512 432.274286c-7.314286 0-13.897143-2.925714-19.017143-8.777143-5.12-5.12-8.045714-12.434286-8.045714-20.48v-146.285714c0-7.314286 2.925714-14.628571 8.045714-20.48 5.12-5.851429 11.702857-8.045714 19.017143-8.045715 8.045714 0 14.628571 2.194286 19.748571 8.045715a31.451429 31.451429 0 0 1 8.045715 20.48v146.285714c0 8.045714-2.925714 15.36-8.045715 20.48z"  horiz-adv-x="1024" />

    
    <glyph glyph-name="zhongzhi" unicode="&#59086;" d="M292.571429 501.028571s71.68 246.491429 194.56 246.491429c128 0 231.862857-104.594286 236.251428-214.308571L578.56 391.314286 1024 308.662857V827.245714l-132.388571-129.462857C871.131429 724.114286 759.954286 896 534.674286 896 244.297143 896 292.571429 501.028571 292.571429 501.028571zM490.057143-128c290.377143 0 241.371429 394.971429 241.371428 394.971429s-71.68-246.491429-195.291428-246.491429c-128 0-231.862857 104.594286-236.251429 214.308571L445.44 376.685714 0 459.337143v-518.582857l132.388571 129.462857C153.6 43.885714 264.777143-128 490.057143-128z"  horiz-adv-x="1024" />

    
    <glyph glyph-name="zhongjianzhenshibiao" unicode="&#59087;" d="M710.948571 179.2c-2.194286-2.194286-5.851429-2.194286-8.045714 0L624.64 257.462857a5.705143 5.705143 0 0 0 0 8.045714l78.262857 78.262858c1.462857 1.462857 2.925714 2.194286 4.388572 2.194285s2.925714-0.731429 4.388571-1.462857l78.262857-78.262857c2.194286-2.194286 2.194286-5.851429 0-8.045714l-19.748571-19.748572 32.182857-32.182857 19.017143 19.017143c19.748571 19.748571 19.748571 52.662857 0 72.411429l-78.262857 78.262857c-9.508571 10.24-22.674286 15.36-35.84 15.36s-26.331429-5.12-36.571429-15.36L592.457143 297.691429c-19.748571-19.748571-19.748571-52.662857 0-72.411429l78.262857-78.262857c9.508571-9.508571 22.674286-15.36 35.84-15.36s26.331429 5.12 35.84 15.36l19.017143 19.017143-30.72 32.914285-19.748572-19.748571zM1008.64 111.177143l-78.262857 78.262857c-9.508571 9.508571-22.674286 15.36-35.84 15.36s-26.331429-5.12-35.84-15.36l-19.017143-19.017143 32.182857-32.182857 19.748572 19.017143c2.194286 2.194286 5.851429 2.194286 8.045714 0l78.262857-78.262857c2.194286-2.194286 2.194286-5.851429 0-8.045715l-78.262857-78.262857c-0.731429-0.731429-2.194286-1.462857-3.657143-1.462857s-2.925714 0.731429-4.388571 1.462857l-78.262858 78.262857a5.705143 5.705143 0 0 0 0 8.045715l19.017143 19.017143-32.182857 32.182857-19.017143-19.017143c-19.748571-19.748571-19.748571-52.662857 0-72.411429l78.262857-78.262857c8.045714-10.24 21.211429-15.36 35.108572-15.36s26.331429 5.12 35.84 15.36l78.262857 78.262857c19.748571 19.748571 19.748571 51.931429 0 72.411429zM739.474286 252.342857a22.674286 22.674286 0 0 1-16.091429-6.582857c-8.777143-8.777143-8.777143-23.405714 0-32.182857l122.88-122.88c4.388571-4.388571 10.24-6.582857 16.091429-6.582857s11.702857 2.194286 16.091428 6.582857 6.582857 10.24 6.582857 16.091428-2.194286 11.702857-6.582857 16.091429L755.565714 245.76a22.674286 22.674286 0 0 1-16.091428 6.582857zM0 822.857143v-877.714286h774.582857l-40.228571 40.228572c-9.508571 10.24-17.554286 21.211429-22.674286 32.914285h-16.822857v42.422857c-26.331429 2.925714-49.737143 14.628571-69.485714 33.645715l-3.657143 3.657143V18.285714h-256v134.582857h201.142857l-19.748572 19.748572c-15.36 15.36-25.6 33.645714-30.72 53.394286H365.714286V382.537143h220.891428l38.765715 39.497143c19.748571 19.017143 43.154286 30.72 69.485714 33.645714V603.428571h219.428571v-147.748571H726.308571c26.331429-2.925714 51.2-14.628571 70.217143-33.645714l39.497143-39.497143h78.262857v-114.102857c26.331429-2.925714 49.737143-14.628571 69.485715-33.645715l3.657142-3.657142V822.857143H0z m292.571429-804.571429h-219.428572v134.582857h219.428572V18.285714z m0 207.725715h-219.428572V382.537143h219.428572v-156.525714z m0 229.668571h-219.428572V603.428571h219.428572v-147.748571z m329.142857 0h-256V603.428571h256v-147.748571z"  horiz-adv-x="1026" />

    
    <glyph glyph-name="xuanzemoban" unicode="&#59088;" d="M0 554.422857h256V-128h-146.285714C49.005714-128 0-78.994286 0-18.285714V554.422857zM1024 786.285714v-146.285714H0v146.285714C0 846.994286 49.005714 896 109.714286 896h804.571428c60.708571 0 109.714286-49.005714 109.714286-109.714286zM341.577143 554.422857H1024v-572.708571c0-60.708571-49.005714-109.714286-109.714286-109.714286H341.577143V554.422857z"  horiz-adv-x="1024" />

    
    <glyph glyph-name="zhongjianzhujian" unicode="&#59089;" d="M512 380.342857h512v-471.771428H512zM365.714286 54.857143V188.708571h256v-50.468571l62.171428 62.171429a210.066286 210.066286 0 0 0 10.971429 160.182857v58.514285h42.422857c38.765714 36.571429 89.965714 59.977143 147.748571 59.977143 37.302857 0 71.68-9.508571 102.4-26.331428V859.428571H0v-877.714285h529.554286c-2.194286 7.314286-2.925714 14.628571-2.925715 22.674285 0 18.285714 5.12 35.84 15.36 50.468572H365.714286z m329.142857 585.142857h219.428571v-147.748571h-219.428571V640zM365.714286 640h256v-147.748571H365.714286V640z m0-220.891429h256v-157.257142H365.714286V419.108571zM292.571429 54.857143H73.142857V188.708571h219.428572v-133.851428z m0 206.994286H73.142857V419.108571h219.428572v-157.257142z m0 230.4H73.142857V640h219.428572v-147.748571zM881.371429 413.257143c-78.994286 0-142.628571-63.634286-142.628572-142.628572 0-28.525714 8.777143-56.32 25.6-80.457142L599.771429 26.331429a24.868571 24.868571 0 0 1 0-36.571429c10.24-10.24 26.331429-10.24 36.571428 0l25.6 24.868571 25.6-25.6c5.12-5.12 11.702857-8.045714 18.285714-8.045714a26.185143 26.185143 0 0 1 25.6 26.331429c0 6.582857-2.925714 13.165714-7.314285 18.285714l-25.6 25.6 21.942857 21.942857 25.6-25.6c9.508571-9.508571 26.331429-9.508571 36.571428 0 5.12 5.12 7.314286 11.702857 7.314286 18.285714s-2.925714 13.165714-7.314286 18.285715l-25.6 25.6 43.885715 43.885714c24.137143-16.822857 51.931429-25.6 80.457143-25.6 78.994286 0 142.628571 64.365714 142.628571 142.628571s-64.365714 142.628571-142.628571 142.628572z m90.697142-142.628572a91.428571 91.428571 0 1 0-182.857142 0 91.428571 91.428571 0 0 0 182.857142 0z"  horiz-adv-x="1024" />

    
    <glyph glyph-name="exceldaochu" unicode="&#59090;" d="M723.382857 566.125714l152.137143-181.394285-152.868571-184.32V318.902857H549.302857V448.365714h174.08V566.125714zM387.657143 623.908571l-111.908572-29.257142-72.411428-131.657143-54.125714 99.474285-91.428572-24.137142L151.405714 369.371429 60.708571 204.8 146.285714 183.588571l53.394286 97.28 71.68-129.462857 117.028571-29.257143-136.777142 252.342858L387.657143 623.908571zM694.857143 786.285714v-73.142857H950.857143v-658.285714H694.857143v-73.142857H1024v804.571428H694.857143zM549.302857 896v-1024L0 10.971429V755.565714L549.302857 896z"  horiz-adv-x="1024" />

    
    <glyph glyph-name="zhongjianwaijian" unicode="&#59091;" d="M1024 272.822857c0-66.56-54.857143-120.685714-122.148571-120.685714-13.897143 0-24.868571 11.702857-24.868572 24.868571 0 13.897143 11.702857 24.868571 24.868572 24.868572 40.228571 0 72.411429 32.182857 72.411428 70.948571 0 39.497143-32.182857 70.948571-72.411428 70.948572-39.497143 0-72.411429-31.451429-72.411429-70.948572v-176.274286c-1.462857-29.988571-14.628571-58.514286-35.84-80.457142-23.405714-22.674286-54.125714-34.377143-85.577143-34.377143-68.022857 0-122.88 53.394286-122.88 119.954285s54.857143 120.685714 122.148572 120.685715c13.165714 0 24.868571-10.971429 24.868571-24.868572 0-6.582857-2.925714-13.165714-7.314286-17.554285-5.12-4.388571-10.971429-7.314286-17.554285-7.314286-40.228571 0-72.411429-32.182857-72.411429-70.948572 0-39.497143 32.182857-70.948571 72.411429-70.948571 39.497143 0 72.411429 31.451429 72.411428 70.948571V277.942857c1.462857 29.988571 14.628571 59.245714 36.571429 79.725714 22.674286 22.674286 53.394286 35.108571 85.577143 35.108572 67.291429 0 122.148571-53.394286 122.148571-119.954286zM0 859.428571v-877.714285h555.154286c-17.554286 21.211429-29.988571 46.08-37.302857 73.142857H365.714286V189.44h167.497143c15.36 29.988571 38.765714 55.588571 66.56 73.142857H365.714286V419.108571h256v-143.36c21.942857 10.971429 46.811429 17.554286 73.142857 19.017143v124.342857h79.725714a196.461714 196.461714 0 0 0 212.845714 27.062858V859.428571H0z m292.571429-804.571428H73.142857V189.44h219.428572v-134.582857z m0 207.725714H73.142857V419.108571h219.428572v-156.525714z m0 229.668572H73.142857V640h219.428572v-147.748571z m329.142857 0H365.714286V640h256v-147.748571z m292.571428 0h-219.428571V640h219.428571v-147.748571z"  horiz-adv-x="1024" />

    
    <glyph glyph-name="JS" unicode="&#59092;" d="M987.428571 298.422857c0-2.194286 0-3.657143-0.731428-5.851428l-2.194286 10.971428c1.462857-2.194286 2.194286-3.657143 2.925714-5.12 5.12 28.525714 8.045714 58.514286 8.045715 87.771429 0 65.097143-13.165714 128.731429-38.034286 188.708571-24.137143 57.782857-59.245714 109.714286-103.862857 154.331429A483.401143 483.401143 0 0 1 699.977143 833.097143a484.937143 484.937143 0 0 1-279.405714 29.257143c1.462857-0.731429 2.925714-1.462857 5.12-2.925715L415.451429 861.622857c1.462857 0 2.925714 0 5.12 0.731429C378.88 884.297143 332.8 896 285.988571 896 209.92 896 137.508571 866.011429 84.114286 811.885714S0 685.348571 0 609.28c0-49.005714 12.434286-96.548571 35.84-138.971429 0.731429 1.462857 0.731429 2.925714 0.731429 5.12l1.462857-10.24-2.194286 4.388572c-5.12-27.794286-7.314286-55.588571-7.314286-83.382857 0-65.097143 13.165714-128.731429 38.034286-188.708572 24.137143-57.782857 59.245714-109.714286 103.862857-153.6 44.617143-44.617143 96.548571-79.725714 153.6-103.862857 59.245714-25.6 122.88-38.034286 187.977143-38.034286 28.525714 0 57.051429 2.925714 84.845714 7.314286-1.462857 0.731429-2.925714 1.462857-5.12 2.925714l10.24-1.462857c-1.462857-0.731429-3.657143-0.731429-5.12-0.731428 43.154286-24.868571 91.428571-38.034286 141.165715-38.034286 76.068571 0 148.48 29.988571 202.605714 84.114286S1024 82.651429 1024 158.72c0 49.005714-13.165714 96.548571-36.571429 139.702857z m-473.234285-209.188571c-171.885714 0-248.685714 84.845714-248.685715 148.48 0 32.182857 24.137143 55.588571 57.051429 55.588571 73.874286 0 54.125714-106.057143 191.634286-106.057143 70.217143 0 108.982857 38.034286 108.982857 77.531429 0 23.405714-11.702857 49.737143-57.782857 60.708571l-152.868572 38.034286c-122.88 30.72-145.554286 97.28-145.554285 160.182857 0 130.194286 122.148571 179.2 236.982857 179.2 106.057143 0 230.4-58.514286 230.4-136.777143 0-33.645714-29.257143-52.662857-62.171429-52.662857-62.902857 0-51.2 87.04-177.737143 87.04-62.902857 0-97.28-28.525714-97.28-69.485714s49.737143-53.394286 92.891429-63.634286l113.371428-24.868571c123.611429-27.794286 155.062857-100.205714 155.062858-168.228572 0-106.057143-81.188571-185.051429-244.297143-185.051428z"  horiz-adv-x="1024" />

    
    <glyph glyph-name="zhongjiansuoyin" unicode="&#59093;" d="M929.645714 117.028571c-44.617143-2.194286-80.457143-35.108571-85.577143-76.8-54.125714 2.194286-86.308571 10.24-100.205714 26.331429a40.228571 40.228571 0 0 0-8.045714 31.451429c1.462857 13.165714 9.508571 20.48 26.331428 24.137142 9.508571 2.194286 20.48 2.925714 32.182858 1.462858h2.194285c7.314286-1.462857 13.897143-2.925714 19.748572-3.657143 21.211429-2.925714 41.691429-4.388571 59.245714-3.657143 59.977143 2.925714 93.622857 29.988571 95.085714 76.068571 1.462857 44.617143-27.794286 79.725714-87.771428 104.594286-16.822857 6.582857-35.108571 12.434286-54.125715 16.822857-7.314286 1.462857-13.165714 2.925714-17.554285 3.657143-5.851429 42.422857-43.885714 73.874286-88.502857 74.605714h-0.731429c-45.348571 0-84.114286-32.182857-89.234286-75.337143-5.12-44.617143 24.137143-84.845714 68.754286-95.085714 43.154286-9.508571 87.771429 12.434286 104.594286 51.931429 4.388571-0.731429 8.777143-1.462857 13.165714-2.925715 16.822857-3.657143 32.914286-8.777143 46.811429-14.628571 40.228571-16.822857 60.708571-37.302857 59.977142-62.171429-0.731429-21.942857-16.822857-32.182857-51.931428-34.377142a240.64 240.64 0 0 0-62.171429 5.12l-2.194285 0.731428c-0.731429 0-1.462857 0-2.194286 0.731429l-2.925714 0.731428c-1.462857 0-2.925714 0.731429-5.12 0.731429-16.822857 1.462857-32.182857 0.731429-46.08-2.925714-35.108571-8.045714-57.051429-29.257143-61.44-61.44-3.657143-26.331429 2.194286-47.542857 16.822857-64.365715 23.405714-27.062857 70.948571-41.691429 144.091428-43.154285a90.697143 90.697143 0 0 1 106.788572-47.542858c43.885714 11.702857 71.68 53.394286 64.365714 96.548572-8.777143 43.885714-49.005714 74.605714-94.354286 72.411428z m48.274286-85.577142c0-23.405714-19.748571-42.422857-44.617143-42.422858s-44.617143 19.017143-44.617143 42.422858 19.748571 42.422857 44.617143 42.422857 44.617143-19.748571 44.617143-42.422857zM722.651429 347.428571c24.137143 0 44.617143-19.017143 44.617142-42.422857s-19.748571-42.422857-44.617142-42.422857-44.617143 19.748571-44.617143 43.154286 19.748571 41.691429 44.617143 41.691428zM0 822.857143v-877.714286h724.114286c-27.062857 10.971429-48.274286 25.6-65.097143 45.348572-19.017143 21.942857-40.228571 59.977143-32.914286 118.491428 2.925714 21.211429 9.508571 40.96 20.48 57.782857-24.868571 14.628571-45.348571 35.108571-59.245714 59.245715H365.714286V382.537143h225.28c24.868571 40.96 69.485714 69.485714 120.685714 73.142857h-16.822857V603.428571h219.428571v-147.748571H748.982857c48.274286-7.314286 89.965714-34.377143 113.371429-73.142857h51.931428v-24.868572c30.72-12.434286 54.857143-27.794286 73.142857-43.885714V822.857143H0z m292.571429-804.571429h-219.428572v134.582857h219.428572V18.285714z m0 207.725715h-219.428572V382.537143h219.428572v-156.525714z m0 229.668571h-219.428572V603.428571h219.428572v-147.748571z m329.142857-302.811429V18.285714h-256v134.582857h256z m0 302.811429h-256V603.428571h256v-147.748571z"  horiz-adv-x="1026" />

    
    <glyph glyph-name="excelmoban" unicode="&#59094;" d="M387.657143 623.908571l-111.908572-29.257142-72.411428-131.657143-54.125714 99.474285-91.428572-24.137142L151.405714 369.371429 60.708571 204.8 146.285714 183.588571l53.394286 97.28 71.68-129.462857 117.028571-29.257143-136.777142 252.342858L387.657143 623.908571zM549.302857 786.285714v-73.142857H950.857143v-658.285714H549.302857v-73.142857H1024v804.571428H549.302857z m0 109.714286v-1024L0 10.971429V755.565714L549.302857 896zM744.594286 652.434286h146.285714v-97.28h-146.285714zM744.594286 506.148571h146.285714v-97.28h-146.285714zM744.594286 359.862857h146.285714v-97.28h-146.285714zM744.594286 213.577143h146.285714v-97.28h-146.285714zM549.302857 652.434286h146.285714v-97.28h-146.285714zM549.302857 506.148571h146.285714v-97.28h-146.285714zM549.302857 359.862857h146.285714v-97.28h-146.285714zM549.302857 213.577143h146.285714v-97.28h-146.285714z"  horiz-adv-x="1024" />

    
    <glyph glyph-name="tupian" unicode="&#59095;" d="M959.634286 768v-768H64.365714V768h895.268572z m0 63.634286H64.365714c-35.84 0-64.365714-28.525714-64.365714-63.634286v-768c0-35.108571 28.525714-64.365714 64.365714-64.365714h896c35.108571 0 64.365714 28.525714 64.365715 64.365714V768a64.950857 64.950857 0 0 1-65.097143 63.634286zM832.365714 607.817143c0-52.662857-43.154286-95.817143-95.817143-95.817143s-96.548571 43.154286-96.548571 95.817143a96.109714 96.109714 0 0 0 192.365714 0zM896 63.634286H128V192.365714l223.817143 384 256-320.365714h64.365714l223.817143 191.634286v-384z"  horiz-adv-x="1024" />

    
    <glyph glyph-name="banbenzhaohui" unicode="&#59062;" d="M991.085714 209.92l-74.605714 119.222857-46.811429-97.28-112.64 7.314286 74.605715-119.222857H618.788571l-89.234285-87.771429L618.788571-54.857143h213.577143c76.8 0 139.702857 31.451429 171.154286 85.577143 31.451429 54.125714 26.331429 119.954286-12.434286 179.2zM814.08 501.028571L673.645714 728.502857C634.148571 788.48 576.365714 822.857143 514.194286 822.857143s-119.954286-34.377143-160.914286-95.817143l-87.771429-141.897143 109.714286 2.194286 49.005714-91.428572 87.04 139.702858c0.731429 1.462857 2.194286 2.925714 2.925715 4.388571 0.731429-0.731429 0.731429-1.462857 1.462857-2.194286l139.702857-225.28 126.537143-30.72 32.182857 119.222857z m-621.714286-379.611428l125.805715 207.725714-32.914286 114.834286-127.268572-27.062857L32.914286 209.92c-38.765714-62.902857-43.154286-129.462857-11.702857-182.125714S114.834286-54.857143 191.634286-54.857143h227.474285l-65.828571 87.771429 65.828571 87.771428H191.634286l0.731428 0.731429z"  horiz-adv-x="1024" />

    
    <glyph glyph-name="xinjianshujubiao-" unicode="&#59055;" d="M1024 420.571429V822.857143c0 43.885714-29.257143 73.142857-73.142857 73.142857H73.142857C29.257143 896 0 866.742857 0 822.857143v-877.714286c0-43.885714 36.571429-73.142857 73.142857-73.142857h877.714286c43.885714 0 73.142857 29.257143 73.142857 73.142857V420.571429z m-80.457143 0H321.828571v146.285714H936.228571v-146.285714zM80.457143 815.542857h863.085714v-160.914286H80.457143V815.542857z m160.914286-241.371428v-146.285715H80.457143v146.285715h160.914286z m0-234.057143v-146.285715H80.457143v146.285715h160.914286z m-160.914286-387.657143v160.914286h160.914286v-160.914286H80.457143z m863.085714 0H321.828571v160.914286H936.228571v-160.914286z m0 241.371428H321.828571v146.285715H936.228571v-146.285715z"  horiz-adv-x="1024" />

    
    <glyph glyph-name="xinjianbaobiao" unicode="&#59049;" d="M949.394286 425.691429h72.411428L1024 427.885714c0 21.942857-2.194286 44.617143-5.12 67.291429l-69.485714-69.485714zM783.36 836.022857L553.691429 607.085714v-72.411428l273.554285 273.554285c-13.897143 10.24-28.525714 19.748571-43.885714 27.794286zM681.691429 878.445714L553.691429 751.177143v-72.411429L734.354286 859.428571a348.891429 348.891429 0 0 1-52.662857 19.017143zM555.154286 896l-1.462857-0.731429V822.857143L621.714286 890.88C599.771429 893.805714 577.828571 896 555.154286 896zM733.622857 425.691429l230.4 230.4c-8.045714 14.628571-17.554286 29.988571-28.525714 43.885714L661.211429 425.691429h72.411428zM903.314286 740.205714c-5.851429 5.851429-10.971429 11.702857-16.822857 18.285715-5.851429 5.851429-12.434286 11.702857-19.017143 18.285714L553.691429 462.994286v-36.571429h35.108571l314.514286 313.782857zM877.714286 425.691429l128.731428 128.731428a655.36 655.36 0 0 1-18.285714 53.394286l-182.125714-182.125714H877.714286zM471.771429 814.811429C211.382857 814.811429 0 603.428571 0 343.771429 0 83.382857 211.382857-128 471.771429-128s471.771429 211.382857 471.771428 471.771429H471.771429V814.811429z"  horiz-adv-x="1024" />

    
    <glyph glyph-name="xinjiangongneng" unicode="&#59050;" d="M870.875089 171.671663v423.925767L512 807.560314l-358.875089-211.962884v-423.925767L512-40.291221l358.875089 211.962884z m59.934333 482.398287c12.42541-7.309065 19.734475-20.465382 19.734475-35.083512v-470.703783c0-14.61813-7.309065-27.774447-19.734475-35.083512l-398.34404-235.351891c-6.578158-4.385439-13.156317-5.847252-20.465382-5.847252a43.85439 43.85439 0 0 0-19.734475 5.116345l-398.34404 235.351892a40.49222 40.49222 0 0 0-20.465382 35.814418V618.986438c0 14.61813 7.309065 27.774447 19.734475 35.083512L491.534618 889.421842c12.42541 7.309065 27.774447 7.309065 40.199857 0l399.074947-235.351892z m-592.765168-124.254104L512 427.488936l173.955746 102.32691c19.003569 11.694504 43.123483 4.385439 54.087081-14.61813 10.963597-19.734475 4.385439-44.585296-14.61813-55.548894l-173.955746-102.326909v-205.384725c0-22.658101-17.541756-40.930764-40.199857-40.930764-21.927195 0-40.199857 18.272662-40.199858 40.930764v204.653818l-173.955746 102.32691a41.296217 41.296217 0 0 0-14.61813 55.548893c12.42541 19.734475 36.545325 26.312634 55.548894 15.349037z"  horiz-adv-x="1024" />

    
    <glyph glyph-name="xinjianshouquan" unicode="&#59051;" d="M1010.834286 280.137143c23.405714-40.228571 14.628571-83.382857-27.062857-128.731429-34.377143-37.302857-82.651429-68.022857-117.76-89.965714-5.12-3.657143-10.971429-6.582857-15.36-9.508571l-27.062858-17.554286c-59.245714-38.765714-126.537143-82.651429-193.097142-101.668572-13.897143-3.657143-29.257143-5.851429-43.885715-5.851428-54.857143 0-109.714286 25.6-158.72 48.274286-13.897143 6.582857-27.794286 13.165714-40.96 18.285714-17.554286 7.314286-35.108571 13.897143-52.662857 20.48-32.182857 12.434286-65.097143 24.868571-95.085714 40.96-7.314286-30.72-33.645714-51.931429-63.634286-51.2H65.097143c-35.84 0-65.097143 29.988571-65.097143 66.56V601.234286c0 36.571429 29.257143 66.56 65.097143 66.56h111.908571c35.84 0 65.097143-29.988571 65.097143-66.56v-37.302857c5.12 0.731429 10.24 0.731429 16.091429 0.731428 34.377143-0.731429 70.948571-19.748571 103.131428-36.571428 8.045714-4.388571 16.091429-8.045714 23.405715-11.702858 60.708571-29.257143 120.685714-59.977143 179.931428-93.622857 9.508571-5.12 20.48-10.24 31.451429-16.091428 29.257143-13.897143 62.171429-29.988571 82.651428-51.2 8.777143-8.777143 14.628571-30.72 19.748572-51.931429 3.657143-11.702857 8.777143-29.988571 11.702857-32.182857 0.731429 0 4.388571-1.462857 23.405714 8.045714 12.434286 6.582857 26.331429 14.628571 37.302857 21.211429 9.508571 5.851429 16.822857 10.24 21.211429 12.434286 42.422857 19.748571 81.188571 29.257143 115.565714 27.062857 42.422857-2.925714 77.531429-22.674286 103.131429-59.977143zM69.485714 75.337143h102.4V596.114286H69.485714v-520.777143z m881.371429 138.24c5.12 13.897143 3.657143 25.6-3.657143 35.108571-13.897143 17.554286-49.005714 23.405714-73.874286 19.748572-23.405714-3.657143-47.542857-18.285714-71.68-32.182857-10.24-6.582857-20.48-12.434286-31.451428-17.554286-8.045714-3.657143-16.091429-8.045714-23.405715-11.702857-55.588571-29.257143-112.64-59.245714-174.811428-40.228572-48.274286 14.628571-92.16 29.988571-126.537143 43.885715-64.365714 27.062857-95.817143 49.005714-97.28 68.754285-0.731429 13.165714 2.925714 22.674286 10.971429 28.525715 28.525714 18.285714 103.862857-21.211429 163.84-53.394286 28.525714-15.36 53.394286-27.794286 62.902857-29.257143 24.868571-3.657143 43.885714 3.657143 50.468571 19.748571 7.314286 17.554286-0.731429 40.96-21.211428 59.245715-27.794286 26.331429-67.291429 45.348571-105.325715 63.634285-13.897143 6.582857-27.062857 13.165714-39.497143 19.748572-8.777143 4.388571-16.822857 8.777143-25.6 13.165714-50.468571 27.062857-103.131429 55.588571-156.525714 76.068572-2.925714 1.462857-5.851429 2.925714-9.508571 4.388571-8.045714 4.388571-19.017143 9.508571-24.868572 8.777143a23.405714 23.405714 0 0 1-11.702857-6.582857v-348.16c84.845714-38.034286 167.497143-73.142857 232.594286-100.937143 8.045714-3.657143 15.36-6.582857 22.674286-10.24 40.228571-18.285714 77.531429-35.108571 122.148571-22.674286 49.737143 13.165714 100.937143 46.08 145.554286 74.605714 10.24 6.582857 20.48 13.165714 29.988571 19.017143 8.045714 5.12 18.285714 10.971429 29.988572 17.554286 44.617143 24.868571 111.908571 62.902857 125.805714 100.937143z m-60.708572 255.268571l-49.005714 38.765715 35.108572 48.274285c2.194286 3.657143 3.657143 8.045714 2.925714 12.434286a20.114286 20.114286 0 0 1-5.851429 10.971429L841.874286 603.428571a15.945143 15.945143 0 0 1-21.942857-2.925714l-35.108572-48.274286-78.994286 62.171429 0.731429 2.194286c5.851429 13.897143 10.24 28.525714 12.434286 44.617143 9.508571 85.577143-49.005714 164.571429-131.657143 174.811428-38.765714 5.12-78.262857-5.851429-108.982857-29.988571-32.182857-25.6-52.662857-62.171429-58.514286-103.131429-5.12-41.691429 5.12-82.651429 29.257143-116.297143 50.468571-68.754286 144.822857-82.651429 210.651428-31.451428l2.194286 1.462857 2.194286-1.462857 184.32-144.822857c3.657143-2.925714 8.045714-4.388571 12.434286-3.657143 4.388571 0.731429 8.045714 2.925714 10.24 6.582857l23.405714 32.182857c2.194286 3.657143 3.657143 8.045714 2.925714 11.702857a21.504 21.504 0 0 1-7.314286 11.702857zM648.777143 669.988571a80.310857 80.310857 0 0 0-78.994286-73.142857c-2.925714 0-6.582857 0-10.24 0.731429-21.211429 2.925714-40.228571 13.897143-53.394286 31.451428-13.165714 18.285714-19.748571 40.228571-16.822857 62.171429 5.12 45.348571 45.348571 78.262857 89.965715 72.411429 20.48-2.925714 39.497143-13.897143 52.662857-31.451429 13.165714-17.554286 19.748571-39.497143 16.822857-62.171429z"  horiz-adv-x="1029" />

    
    <glyph glyph-name="xinjianjiekou" unicode="&#59052;" d="M731.428571 384v-292.571429c0-121.417143-98.011429-219.428571-219.428571-219.428571s-219.428571 98.011429-219.428571 219.428571h80.457142a138.971429 138.971429 0 1 1 277.942858 0V384H731.428571zM731.428571 676.571429H650.971429a138.971429 138.971429 0 1 1-277.942858 0v-292.571429H292.571429V676.571429c0 121.417143 98.011429 219.428571 219.428571 219.428571s219.428571-98.011429 219.428571-219.428571zM1024 384c0-121.417143-98.011429-219.428571-219.428571-219.428571V245.028571a138.971429 138.971429 0 1 1 0 277.942858H512V603.428571h292.571429c121.417143 0 219.428571-98.011429 219.428571-219.428571zM512 245.028571V164.571429H219.428571c-121.417143 0-219.428571 98.011429-219.428571 219.428571s98.011429 219.428571 219.428571 219.428571v-80.457142a138.971429 138.971429 0 1 1 0-277.942858h292.571429z"  horiz-adv-x="1024" />

    
    <glyph glyph-name="xinjianshujubiao" unicode="&#59053;" d="M906.971429 778.971429v-789.942858H117.028571V778.971429h789.942858m7.314285 80.457142h-804.571428c-40.228571 0-73.142857-32.914286-73.142857-73.142857v-804.571428c0-40.228571 32.914286-73.142857 73.142857-73.142857h804.571428c40.228571 0 73.142857 32.914286 73.142857 73.142857v804.571428c0 40.228571-32.914286 73.142857-73.142857 73.142857zM201.142857 231.862857h73.142857v-177.005714h-73.142857zM384 358.4h73.142857v-303.542857h-73.142857zM566.857143 257.462857h73.142857v-202.605714h-73.142857zM749.714286 384h73.142857v-329.142857h-73.142857zM261.851429 384l-48.274286 54.857143 199.68 177.737143 188.708571-77.531429 158.72 154.331429 51.2-51.931429-193.828571-188.708571-190.171429 78.994285z"  horiz-adv-x="1024" />

    
    <glyph glyph-name="xinjianyemian" unicode="&#59054;" d="M906.971429 778.971429v-789.942858H117.028571V778.971429h789.942858m7.314285 80.457142h-804.571428c-40.228571 0-73.142857-32.914286-73.142857-73.142857v-804.571428c0-40.228571 32.914286-73.142857 73.142857-73.142857h804.571428c40.228571 0 73.142857 32.914286 73.142857 73.142857v804.571428c0 40.228571-32.914286 73.142857-73.142857 73.142857zM906.971429 778.971429v-131.657143H117.028571V778.971429h789.942858m7.314285 80.457142h-804.571428c-40.228571 0-73.142857-32.914286-73.142857-73.142857v-146.285714c0-40.228571 32.914286-73.142857 73.142857-73.142857h804.571428c40.228571 0 73.142857 32.914286 73.142857 73.142857v146.285714c0 40.228571-32.914286 73.142857-73.142857 73.142857zM248.685714 566.857143v-577.828572H117.028571V566.857143h131.657143m7.314286 80.457143h-146.285714c-40.228571 0-73.142857-32.914286-73.142857-73.142857v-592.457143c0-40.228571 32.914286-73.142857 73.142857-73.142857h146.285714c40.228571 0 73.142857 32.914286 73.142857 73.142857V574.171429c0 40.228571-32.914286 73.142857-73.142857 73.142857z"  horiz-adv-x="1024" />

    
    <glyph glyph-name="xiayiji" unicode="&#59031;" d="M292.571429-128l512 512-512 512-73.142858-73.142857 438.857143-438.857143-438.857143-438.857143z"  horiz-adv-x="1024" />

    
    <glyph glyph-name="daibanshixiang" unicode="&#59022;" d="M811.885714 420.571429c-7.314286 14.628571-14.628571 36.571429-29.257143 51.2-43.885714-87.771429-87.771429-168.228571-138.971428-248.685715l-7.314286 7.314286c-14.628571 29.257143-36.571429 58.514286-51.2 87.771429-7.314286 7.314286-7.314286 7.314286-14.628571 0-21.942857-14.628571-43.885714-36.571429-65.828572-51.2-7.314286-7.314286-7.314286-7.314286 0-14.628572 43.885714-51.2 95.085714-102.4 138.971429-153.6 7.314286-7.314286 7.314286-7.314286 14.628571 0 65.828571 73.142857 131.657143 153.6 197.485715 226.742857 7.314286 7.314286 7.314286 7.314286 0 14.628572-21.942857 29.257143-36.571429 51.2-43.885715 80.457143zM365.714286 230.4H197.485714c-7.314286 0-7.314286 0-7.314285-7.314286v-138.971428c0-7.314286 0-7.314286 7.314285-7.314286H365.714286c7.314286 0 7.314286 0 7.314285 7.314286V223.085714c0 7.314286 0 7.314286-7.314285 7.314286z m7.314285 197.485714c0 7.314286 0 7.314286-7.314285 7.314286H197.485714c-7.314286 0-7.314286 0-7.314285-7.314286v-131.657143c0-7.314286 0-7.314286 7.314285-7.314285H365.714286c7.314286 0 7.314286 0 7.314285 7.314285V427.885714z m555.885715-351.085714c0-58.514286-43.885714-102.4-95.085715-109.714286H190.171429c-51.2 0-87.771429 36.571429-95.085715 87.771429v14.628571 446.171429c0 7.314286 0 14.628571 14.628572 14.628571h819.2c7.314286 0 14.628571 0 14.628571-14.628571-14.628571-138.971429-14.628571-285.257143-14.628571-438.857143z m95.085714 512c0 21.942857 0 43.885714-7.314286 65.828571-29.257143 87.771429-87.771429 131.657143-168.228571 138.971429-7.314286 0-7.314286 0-7.314286 14.628571V844.8c0 29.257143-21.942857 51.2-43.885714 51.2H694.857143c-21.942857 0-43.885714-21.942857-43.885714-51.2v-43.885714c0-7.314286 0-7.314286-7.314286-7.314286H380.342857c-7.314286 0-7.314286 0-7.314286 7.314286V844.8c0 29.257143-21.942857 51.2-43.885714 51.2H226.742857c-21.942857 0-36.571429-21.942857-36.571428-43.885714v-51.2c-7.314286-7.314286-14.628571 0-21.942858-7.314286h-7.314285C65.828571 771.657143 0 691.2 0 588.8v-504.685714c0-14.628571 0-36.571429 7.314286-51.2 14.628571-95.085714 87.771429-160.914286 182.857143-160.914286H863.085714c95.085714 14.628571 160.914286 102.4 160.914286 204.8v512z"  horiz-adv-x="1024" />

    
    <glyph glyph-name="genghuanmima" unicode="&#59023;" d="M841.142857 530.285714h-512V640C329.142857 742.4 409.6 822.857143 512 822.857143s182.857143-80.457143 182.857143-182.857143c0-21.942857 14.628571-36.571429 36.571428-36.571429s36.571429 14.628571 36.571429 36.571429C768 778.971429 650.971429 896 512 896S256 778.971429 256 640V530.285714h-73.142857C124.342857 530.285714 73.142857 479.085714 73.142857 420.571429v-438.857143c0-58.514286 51.2-109.714286 109.714286-109.714286h658.285714c58.514286 0 109.714286 51.2 109.714286 109.714286v438.857143c0 58.514286-51.2 109.714286-109.714286 109.714285z m-292.571428-351.085714v-102.4c0-21.942857-14.628571-36.571429-36.571429-36.571429s-36.571429 14.628571-36.571429 36.571429V179.2c-29.257143 14.628571-51.2 51.2-51.2 87.771429 0 51.2 43.885714 87.771429 87.771429 87.771428s87.771429-43.885714 87.771429-87.771428c0-36.571429-21.942857-73.142857-51.2-87.771429z"  horiz-adv-x="1024" />

    
    <glyph glyph-name="duoguoyuyan" unicode="&#59024;" d="M512 896C226.742857 896 0 669.257143 0 384s226.742857-512 512-512 512 226.742857 512 512-226.742857 512-512 512zM438.857143-76.8C219.428571-40.228571 51.2 157.257143 51.2 384c0 29.257143 0 65.828571 7.314286 95.085714 21.942857-21.942857 51.2-21.942857 65.828571 0-7.314286 7.314286-7.314286 7.314286 0 7.314286 21.942857-7.314286 51.2-7.314286 51.2-36.571429 0-80.457143 7.314286-168.228571 80.457143-168.228571 29.257143-7.314286 51.2-36.571429 58.514286-65.828571 7.314286-21.942857 36.571429 0 58.514285 0 14.628571 0 0-21.942857 0-73.142858s109.714286-131.657143 109.714286-131.657142c0-29.257143 0-51.2 7.314286-80.457143-14.628571 0-36.571429 0-51.2-7.314286z m182.857143 14.628571c-7.314286 7.314286-14.628571 7.314286-29.257143 7.314286 14.628571 65.828571 21.942857 102.4 51.2 131.657143 21.942857 14.628571 29.257143 36.571429 14.628571 58.514286-7.314286 14.628571-29.257143 21.942857-43.885714 21.942857-21.942857-14.628571-7.314286 29.257143-29.257143 29.257143-21.942857 7.314286-58.514286 58.514286-95.085714 73.142857-14.628571 7.314286-36.571429 29.257143-65.828572 29.257143-21.942857 0-65.828571-21.942857-65.828571-7.314286 0 58.514286-7.314286 95.085714-7.314286 117.028571 0 14.628571-7.314286 7.314286 29.257143 7.314286 21.942857 0 7.314286 36.571429 29.257143 36.571429s65.828571-21.942857 73.142857-7.314286c7.314286 7.314286 80.457143-175.542857 80.457143-29.257143 0 21.942857-7.314286 51.2 0 65.828572 21.942857 36.571429 51.2 80.457143 65.828571 124.342857-14.628571 7.314286-36.571429 7.314286-58.514285 0-7.314286 0 7.314286-14.628571-7.314286-14.628572-51.2-14.628571-95.085714 14.628571-80.457143 36.571429 14.628571 21.942857 73.142857 7.314286 80.457143 58.514286 7.314286 29.257143 7.314286 58.514286 7.314286 80.457142 58.514286-7.314286 58.514286 58.514286 0 87.771429 190.171429-21.942857 351.085714-168.228571 394.971428-358.4-7.314286 14.628571-21.942857 58.514286-21.942857 58.514286-29.257143 80.457143-102.4 21.942857-80.457143-43.885715-138.971429-102.4-95.085714-175.542857-51.2-212.114285 21.942857-21.942857 43.885714-51.2 58.514286-80.457143-14.628571-36.571429 43.885714-29.257143 80.457143 29.257143v7.314285c-43.885714-153.6-175.542857-270.628571-329.142857-307.2z"  horiz-adv-x="1024" />

    
    <glyph glyph-name="gongnengtiaoshi" unicode="&#59025;" d="M1024 303.542857v65.828572h-190.171429c-7.314286 73.142857-29.257143 138.971429-73.142857 197.485714h160.914286l73.142857 285.257143-58.514286 14.628571-58.514285-234.057143H694.857143c7.314286 21.942857 7.314286 43.885714 7.314286 65.828572C702.171429 808.228571 614.4 896 512 896S321.828571 808.228571 321.828571 698.514286c0-21.942857 0-43.885714 7.314286-65.828572H153.6L95.085714 874.057143 36.571429 852.114286l73.142857-285.257143h160.914285c-36.571429-51.2-65.828571-124.342857-73.142857-197.485714H0v-65.828572h190.171429c7.314286-43.885714 14.628571-87.771429 36.571428-131.657143H102.4l-73.142857-285.257143 65.828571-14.628571 58.514286 234.057143h109.714286c58.514286-80.457143 146.285714-131.657143 248.685714-131.657143s190.171429 51.2 248.685714 131.657143h109.714286l58.514286-234.057143 58.514285 14.628571-73.142857 285.257143h-124.342857c14.628571 36.571429 29.257143 87.771429 36.571429 131.657143H1024z"  horiz-adv-x="1024" />

    
    <glyph glyph-name="tixing" unicode="&#59026;" d="M205.077984 485.844033c0 131.538007 80.384338 248.46068 204.614677 292.306682C402.384994 829.304384 438.923329 887.765721 497.384666 895.073388s109.615006-29.230668 116.922673-87.692005v-29.230668c124.23034-43.846002 204.614678-160.768675 204.614677-292.306682v-306.922017l131.538007-102.307338v-51.15367H73.539977v51.15367l131.538007 102.307338V485.844033z m409.229355-511.536694c0-58.461336-43.846002-102.307339-102.307339-102.307339s-102.307339 43.846002-102.307339 102.307339h204.614678z"  horiz-adv-x="1024" />

    
    <glyph glyph-name="xiugaimima" unicode="&#59027;" d="M841.142857 530.285714h-512V640C329.142857 742.4 409.6 822.857143 512 822.857143s182.857143-80.457143 182.857143-182.857143c0-21.942857 14.628571-36.571429 36.571428-36.571429s36.571429 14.628571 36.571429 36.571429C768 778.971429 650.971429 896 512 896S256 778.971429 256 640V530.285714h-73.142857C124.342857 530.285714 73.142857 479.085714 73.142857 420.571429v-438.857143c0-58.514286 51.2-109.714286 109.714286-109.714286h658.285714c58.514286 0 109.714286 51.2 109.714286 109.714286v438.857143c0 58.514286-51.2 109.714286-109.714286 109.714285z m36.571429-548.571428c0-21.942857-14.628571-36.571429-36.571429-36.571429h-658.285714c-21.942857 0-36.571429 14.628571-36.571429 36.571429v438.857143c0 21.942857 14.628571 36.571429 36.571429 36.571428h658.285714c21.942857 0 36.571429-14.628571 36.571429-36.571428v-438.857143zM512 354.742857c-51.2 0-87.771429-43.885714-87.771429-87.771428 0-36.571429 21.942857-65.828571 58.514286-80.457143v-102.4c0-21.942857 14.628571-36.571429 36.571429-36.571429s36.571429 14.628571 36.571428 36.571429V179.2c29.257143 14.628571 58.514286 43.885714 58.514286 80.457143-14.628571 58.514286-51.2 95.085714-102.4 95.085714z"  horiz-adv-x="1024" />

    
    <glyph glyph-name="richeng" unicode="&#59028;" d="M753.371429 896c29.257143 0 58.514286-21.942857 58.514285-58.514286v-168.228571c0-29.257143-29.257143-58.514286-58.514285-58.514286s-58.514286 21.942857-58.514286 58.514286V837.485714c0 29.257143 21.942857 58.514286 58.514286 58.514286zM270.628571 896c29.257143 0 58.514286-21.942857 58.514286-58.514286v-168.228571c-7.314286-29.257143-29.257143-58.514286-65.828571-58.514286-29.257143 0-51.2 29.257143-51.2 58.514286V837.485714c0 29.257143 21.942857 58.514286 58.514285 58.514286z m519.314286-585.142857c14.628571-7.314286 29.257143-21.942857 29.257143-36.571429 0-21.942857-14.628571-36.571429-36.571429-36.571428H234.057143c-21.942857 0-36.571429 14.628571-36.571429 36.571428s14.628571 36.571429 36.571429 36.571429h555.885714z m0-292.571429H234.057143c-21.942857 0-36.571429 14.628571-36.571429 36.571429 0 14.628571 14.628571 36.571429 36.571429 36.571428h555.885714c21.942857 0 36.571429-14.628571 36.571429-36.571428-7.314286-21.942857-21.942857-36.571429-36.571429-36.571429zM0 449.828571v-468.114285c0-65.828571 43.885714-109.714286 102.4-109.714286h819.2c58.514286 0 102.4 43.885714 102.4 109.714286V449.828571H0z m921.6 358.4h-95.085714v-138.971428c0-43.885714-36.571429-73.142857-73.142857-73.142857-43.885714 0-73.142857 36.571429-73.142858 73.142857V808.228571H343.771429v-138.971428c0-43.885714-36.571429-73.142857-73.142858-73.142857s-73.142857 36.571429-73.142857 73.142857V808.228571H102.4C43.885714 808.228571 0 757.028571 0 698.514286v-190.171429h1024V698.514286c0 58.514286-43.885714 109.714286-102.4 109.714285z"  horiz-adv-x="1024" />

    
    <glyph glyph-name="xiaoxi" unicode="&#59029;" d="M797.257143 405.942857c-43.885714 0-80.457143 36.571429-80.457143 73.142857s36.571429 73.142857 80.457143 73.142857 80.457143-36.571429 80.457143-73.142857-43.885714-73.142857-80.457143-73.142857z m-292.571429 0c-43.885714 0-80.457143 36.571429-80.457143 73.142857s36.571429 73.142857 80.457143 73.142857 80.457143-36.571429 80.457143-73.142857-29.257143-73.142857-80.457143-73.142857z m-277.942857 0c-43.885714 0-73.142857 36.571429-73.142857 73.142857s36.571429 73.142857 80.457143 73.142857c43.885714 0 80.457143-36.571429 80.457143-73.142857-7.314286-36.571429-43.885714-73.142857-87.771429-73.142857z m585.142857 460.8H212.114286C95.085714 866.742857 0 778.971429 0 676.571429v-387.657143C0 186.514286 95.085714 91.428571 212.114286 91.428571h21.942857s0-7.314286 7.314286-7.314285l80.457142-80.457143c14.628571-14.628571 36.571429-14.628571 43.885715 0l73.142857 73.142857 7.314286 7.314286h365.714285c109.714286 0 212.114286 87.771429 212.114286 197.485714V676.571429C1024 778.971429 928.914286 866.742857 811.885714 866.742857z"  horiz-adv-x="1024" />

    
    <glyph glyph-name="zhuxiao" unicode="&#59030;" d="M585.142857 786.285714c29.257143 7.314286 51.2 0 73.142857-14.628571l343.771429-336.457143c29.257143-29.257143 29.257143-65.828571 0-95.085714-117.028571-109.714286-226.742857-226.742857-343.771429-336.457143-14.628571-14.628571-36.571429-21.942857-51.2-21.942857-14.628571 0-29.257143 7.314286-43.885714 21.942857-7.314286 14.628571-14.628571 29.257143-14.628571 43.885714V201.142857H292.571429c-43.885714 0-73.142857 29.257143-73.142858 65.828572V508.342857c0 36.571429 29.257143 65.828571 65.828572 65.828572h256v146.285714c7.314286 29.257143 21.942857 58.514286 43.885714 65.828571zM512 837.485714c0 36.571429-21.942857 58.514286-51.2 58.514286H219.428571C95.085714 896 0 800.914286 0 676.571429v-585.142858c0-124.342857 95.085714-219.428571 219.428571-219.428571h241.371429c29.257143 0 51.2 21.942857 51.2 51.2 0 29.257143-21.942857 51.2-51.2 51.2H256c-80.457143 0-146.285714 65.828571-146.285714 146.285714v512c0 80.457143 65.828571 146.285714 146.285714 146.285715h204.8c29.257143 7.314286 51.2 29.257143 51.2 58.514285z"  horiz-adv-x="1024" />

    
    <glyph glyph-name="diannaoduanzhuyemian" unicode="&#58958;" d="M855.771429 822.857143H102.4C43.885714 822.857143 0 771.657143 0 713.142857v-519.314286c0-29.257143 14.628571-58.514286 29.257143-80.457142 21.942857-21.942857 43.885714-29.257143 73.142857-29.257143h241.371429s-43.885714-117.028571-43.885715-124.342857c0-7.314286 7.314286-14.628571 14.628572-14.628572h190.171428v109.714286c-14.628571 7.314286-21.942857 14.628571-36.571428 21.942857l-14.628572 21.942857c-14.628571 21.942857-21.942857 43.885714-21.942857 65.828572 0 36.571429 21.942857 58.514286 29.257143 65.828571l14.628571 7.314286H117.028571c-29.257143 0-51.2 21.942857-51.2 58.514285V691.2c0 14.628571 7.314286 29.257143 14.628572 36.571429 14.628571 14.628571 21.942857 21.942857 36.571428 21.942857h716.8c29.257143 0 51.2-21.942857 51.2-58.514286v-248.685714h73.142858V713.142857c0 58.514286-43.885714 109.714286-102.4 109.714286zM943.542857 135.314286c7.314286 0 7.314286-7.314286 7.314286-14.628572v-153.6c0-14.628571-7.314286-21.942857-21.942857-21.942857H804.571429v131.657143H716.8V-54.857143H599.771429c-14.628571 0-21.942857 7.314286-21.942858 21.942857v153.6s0 7.314286 7.314286 7.314286c51.2 58.514286 109.714286 109.714286 168.228572 160.914286h7.314285c21.942857-14.628571 36.571429-29.257143 58.514286-51.2 43.885714-29.257143 80.457143-65.828571 124.342857-102.4zM1016.685714 171.885714c7.314286-7.314286 7.314286-14.628571 0-21.942857l-14.628571-21.942857c-7.314286-7.314286-14.628571-7.314286-21.942857 0-58.514286 51.2-109.714286 95.085714-168.228572 146.285714-14.628571 14.628571-36.571429 29.257143-51.2 51.2-21.942857-14.628571-36.571429-29.257143-58.514285-51.2l-168.228572-146.285714c-7.314286-7.314286-14.628571-7.314286-21.942857 0 0 7.314286 0 14.628571-7.314286 21.942857-7.314286 7.314286-7.314286 14.628571 0 21.942857 36.571429 29.257143 65.828571 58.514286 102.4 87.771429 43.885714 36.571429 80.457143 73.142857 124.342857 109.714286 21.942857 14.628571 36.571429 14.628571 58.514286 0l65.828572-58.514286s7.314286 0 7.314285-7.314286v65.828572c0 7.314286 7.314286 7.314286 14.628572 7.314285h58.514285c7.314286 0 14.628571-7.314286 14.628572-14.628571V237.714286c0-7.314286 0-14.628571 7.314286-21.942857 21.942857-14.628571 36.571429-29.257143 58.514285-43.885715z"  horiz-adv-x="1024" />

    
    <glyph glyph-name="shoujiduanzhuyemian" unicode="&#58974;" d="M614.4 113.371429v-7.314286zM870.4 62.171429c7.314286 0 7.314286-7.314286 7.314286-14.628572v-153.6c0-14.628571-7.314286-21.942857-29.257143-21.942857H716.8v131.657143H629.028571V-128H497.371429c-14.628571 0-21.942857 7.314286-21.942858 21.942857v153.6s0 7.314286 7.314286 7.314286c65.828571 51.2 131.657143 102.4 190.171429 153.6h7.314285c7.314286 0 29.257143-21.942857 51.2-36.571429 43.885714-36.571429 87.771429-73.142857 138.971429-109.714285zM950.857143 76.8l-14.628572-21.942857c-7.314286-7.314286-14.628571-7.314286-21.942857 0-58.514286 51.2-124.342857 95.085714-182.857143 146.285714-21.942857 21.942857-36.571429 36.571429-58.514285 51.2-21.942857-14.628571-43.885714-29.257143-58.514286-51.2L438.857143 62.171429l-7.314286-7.314286c-7.314286-7.314286-14.628571-7.314286-21.942857 0-7.314286 7.314286-7.314286 14.628571-14.628571 21.942857-7.314286 7.314286-7.314286 14.628571 0 21.942857 0 0 7.314286 7.314286 14.628571 7.314286 29.257143 29.257143 65.828571 58.514286 95.085714 80.457143l131.657143 109.714285c21.942857 14.628571 43.885714 14.628571 58.514286 0l73.142857-58.514285s7.314286 0 7.314286-7.314286v65.828571c0 7.314286 0 14.628571 14.628571 14.628572h65.828572c7.314286 0 14.628571-7.314286 14.628571-14.628572v-124.342857c0-7.314286 0-14.628571 7.314286-21.942857 21.942857-14.628571 43.885714-36.571429 65.828571-51.2 14.628571-7.314286 14.628571-14.628571 7.314286-21.942857zM650.971429 874.057143C636.342857 888.685714 614.4 896 599.771429 896h-438.857143c-21.942857 0-36.571429-7.314286-51.2-21.942857s-21.942857-36.571429-21.942857-51.2v-877.714286c0-21.942857 7.314286-36.571429 21.942857-51.2s29.257143-21.942857 51.2-21.942857h234.057143c-51.2 7.314286-87.771429 51.2-87.771429 95.085714v138.971429H146.285714v658.285714h475.428572v-402.285714c14.628571 14.628571 29.257143 21.942857 51.2 21.942857V822.857143c0 14.628571-7.314286 36.571429-21.942857 51.2z m-160.914286-58.514286h-219.428572c-7.314286 0-7.314286 7.314286-7.314285 14.628572s7.314286 14.628571 7.314285 14.628571h212.114286c7.314286 0 7.314286-7.314286 7.314286-14.628571 7.314286-7.314286 0-14.628571 0-14.628572z"  horiz-adv-x="1024" />

    
    <glyph glyph-name="guanyu" unicode="&#59021;" d="M577.828571 179.2c0 7.314286-7.314286 14.628571-7.314285 14.628571-7.314286 7.314286-14.628571 14.628571-21.942857 14.628572h-73.142858c-7.314286 0-14.628571-7.314286-21.942857-7.314286 0-7.314286 0-14.628571-7.314285-21.942857v-58.514286c0-7.314286 7.314286-14.628571 7.314285-14.628571 7.314286-7.314286 7.314286-7.314286 21.942857-7.314286h73.142858c7.314286 0 14.628571 7.314286 21.942857 7.314286 7.314286 7.314286 7.314286 7.314286 7.314285 14.628571v29.257143 29.257143zM577.828571 676.571429l-21.942857-394.971429H468.114286L446.171429 676.571429zM512 764.342857c212.114286 0 380.342857-168.228571 380.342857-380.342857S724.114286 3.657143 512 3.657143 131.657143 171.885714 131.657143 384 299.885714 764.342857 512 764.342857M512 896C226.742857 896 0 669.257143 0 384s226.742857-512 512-512 512 226.742857 512 512-226.742857 512-512 512z"  horiz-adv-x="1024" />

    
    <glyph glyph-name="bilisuofang" unicode="&#58957;" d="M775.314286 654.628571v-358.4L175.542857 896 0 720.457143l599.771429-599.771429H241.371429V-128H1024V654.628571z"  horiz-adv-x="1024" />

    
    <glyph glyph-name="quanbuzuoyi" unicode="&#59012;" d="M424.821029 749.714286L44.478171 464.457143C0.592457 435.2-14.036114 376.685714 15.221029 325.485714c7.314286-7.314286 14.628571-14.628571 29.257142-21.942857L424.821029 18.285714c43.885714-29.257143 102.4-14.628571 124.342857 29.257143 7.314286 14.628571 14.628571 36.571429 14.628571 58.514286V669.257143c0 58.514286-43.885714 102.4-95.085714 102.4-7.314286 0-21.942857-7.314286-43.885714-21.942857zM878.306743 749.714286L497.963886 464.457143c-43.885714-29.257143-58.514286-87.771429-29.257143-138.971429 7.314286-7.314286 14.628571-14.628571 29.257143-21.942857L878.306743 18.285714c43.885714-29.257143 102.4-14.628571 124.342857 29.257143 7.314286 14.628571 14.628571 36.571429 14.628571 58.514286V669.257143c0 58.514286-43.885714 102.4-95.085714 102.4-7.314286 0-21.942857-7.314286-43.885714-21.942857z"  horiz-adv-x="1024" />

    
    <glyph glyph-name="youyi" unicode="&#59014;" d="M300.139342 874.08338L877.276997 494.195303c65.749859-36.5277 80.360939-124.194179 36.5277-182.638498-7.30554-14.61108-21.91662-29.22216-36.5277-36.5277l-577.137655-379.888077c-65.749859-43.83324-146.110799-21.91662-189.944039 36.5277-14.61108 21.91662-21.91662 51.13878-21.916619 73.055399V764.500281C88.278684 837.55568 146.723003 896 219.778402 896c29.22216 0 58.44432-7.30554 80.36094-21.91662z"  horiz-adv-x="1024" />

    
    <glyph glyph-name="zuoyi" unicode="&#59015;" d="M723.860658 874.08338L146.723003 494.195303C80.973144 457.667604 66.362064 370.001124 110.195303 311.556805c7.30554-14.61108 21.91662-29.22216 36.5277-36.5277l577.137655-379.888077c65.749859-43.83324 146.110799-21.91662 189.944039 36.5277 14.61108 21.91662 21.91662 51.13878 21.916619 73.055399V764.500281C935.721316 837.55568 877.276997 896 804.221598 896c-29.22216 0-58.44432-7.30554-80.36094-21.91662z"  horiz-adv-x="1024" />

    
    <glyph glyph-name="quanbuyouyi" unicode="&#59016;" d="M599.771429 749.714286l387.657142-285.257143c43.885714-29.257143 51.2-95.085714 21.942858-138.971429-7.314286-14.628571-14.628571-21.942857-21.942858-29.257143L599.771429 18.285714c-43.885714-29.257143-102.4-14.628571-124.342858 29.257143-7.314286 14.628571-14.628571 36.571429-14.628571 58.514286V669.257143c0 58.514286 43.885714 102.4 95.085714 102.4 7.314286 0 21.942857-7.314286 43.885715-21.942857zM146.285714 749.714286l387.657143-285.257143c36.571429-29.257143 51.2-87.771429 21.942857-138.971429-7.314286-7.314286-14.628571-14.628571-29.257143-21.942857L146.285714 18.285714c-43.885714-29.257143-102.4-14.628571-124.342857 29.257143-14.628571 14.628571-21.942857 36.571429-21.942857 51.2V669.257143c0 58.514286 43.885714 102.4 95.085714 102.4 14.628571 0 29.257143-7.314286 51.2-21.942857z"  horiz-adv-x="1026" />

    
    <glyph glyph-name="riqi" unicode="&#59017;" d="M694.857143 113.371429h146.285714v-73.142858h-146.285714v73.142858z m-256 0h146.285714v-73.142858H438.857143v73.142858z m-256 0h146.285714v-73.142858h-146.285714v73.142858z m512 138.971428h146.285714v-73.142857h-146.285714v73.142857zM438.857143 252.342857h146.285714v-73.142857H438.857143v73.142857z m-256 0h146.285714v-73.142857h-146.285714v73.142857z m512 146.285714h146.285714v-73.142857h-146.285714v73.142857zM438.857143 398.628571h146.285714v-73.142857H438.857143v73.142857z m-256 0h146.285714v-73.142857h-146.285714v73.142857z m760.685714-460.8H80.457143c-7.314286 0-14.628571 7.314286-14.628572 14.628572V515.657143h892.342858v-563.2c0-7.314286-7.314286-14.628571-14.628572-14.628572zM160.914286 815.542857c0 29.257143 21.942857 51.2 51.2 51.2 29.257143 0 51.2-21.942857 51.2-51.2v-146.285714c0-29.257143-21.942857-51.2-51.2-51.2-14.628571 0-21.942857 7.314286-36.571429 14.628571-7.314286 14.628571-14.628571 29.257143-14.628571 36.571429v146.285714z m607.085714 0c0 29.257143 21.942857 51.2 51.2 51.2 29.257143 0 51.2-21.942857 51.2-51.2v-146.285714c0-29.257143-21.942857-51.2-51.2-51.2-14.628571 0-21.942857 7.314286-36.571429 14.628571-7.314286 7.314286-14.628571 21.942857-14.628571 36.571429v146.285714z m175.542857-14.628571h-51.2v14.628571c0 43.885714-36.571429 80.457143-80.457143 80.457143-43.885714 0-80.457143-36.571429-80.457143-80.457143v-14.628571H292.571429v14.628571C292.571429 859.428571 256 896 212.114286 896c-43.885714 0-80.457143-36.571429-80.457143-80.457143v-14.628571h-51.2C36.571429 800.914286 0 764.342857 0 720.457143v-768c0-43.885714 36.571429-80.457143 80.457143-80.457143h863.085714c43.885714 0 80.457143 36.571429 80.457143 80.457143V720.457143c0 43.885714-36.571429 80.457143-80.457143 80.457143z"  horiz-adv-x="1024" />

    
    <glyph glyph-name="bangzhu" unicode="&#59018;" d="M665.6 603.428571c-7.314286 21.942857-14.628571 36.571429-36.571429 43.885715-14.628571 7.314286-36.571429 14.628571-58.514285 21.942857C541.257143 676.571429 512 676.571429 475.428571 676.571429c-29.257143 0-51.2 0-73.142857-7.314286-21.942857 0-36.571429-7.314286-58.514285-7.314286v-80.457143c14.628571 7.314286 29.257143 7.314286 51.2 7.314286 43.885714 7.314286 87.771429 7.314286 117.028571 7.314286 14.628571 0 21.942857-7.314286 36.571429-14.628572l21.942857-21.942857c7.314286-7.314286 7.314286-21.942857 7.314285-36.571428v-29.257143c0-7.314286-7.314286-14.628571-7.314285-21.942857-14.628571-7.314286-21.942857-14.628571-29.257143-21.942858-7.314286-7.314286-21.942857-14.628571-29.257143-21.942857-14.628571-14.628571-29.257143-21.942857-36.571429-29.257143-7.314286-14.628571-14.628571-21.942857-21.942857-29.257142-7.314286-7.314286-7.314286-21.942857-14.628571-29.257143v-58.514286h87.771428v14.628571 21.942858c0 7.314286 7.314286 14.628571 14.628572 21.942857l21.942857 21.942857c7.314286 7.314286 21.942857 14.628571 29.257143 21.942857 14.628571 7.314286 29.257143 21.942857 36.571428 29.257143 14.628571 7.314286 21.942857 21.942857 29.257143 29.257143 7.314286 14.628571 14.628571 29.257143 14.628572 36.571428 0 14.628571 7.314286 29.257143 7.314285 51.2 0 29.257143-7.314286 58.514286-14.628571 73.142857zM548.571429 179.2c0 7.314286-7.314286 14.628571-7.314286 14.628571-7.314286 7.314286-14.628571 14.628571-21.942857 14.628572h-73.142857c-7.314286 0-14.628571-7.314286-14.628572-7.314286-7.314286-7.314286-7.314286-14.628571-14.628571-21.942857v-58.514286c0-7.314286 7.314286-14.628571 7.314285-14.628571 7.314286-7.314286 14.628571-7.314286 21.942858-14.628572h73.142857c7.314286 0 14.628571 7.314286 21.942857 7.314286 7.314286 7.314286 7.314286 7.314286 7.314286 14.628572v29.257142 36.571429zM512 764.342857c212.114286 0 380.342857-168.228571 380.342857-380.342857S724.114286 3.657143 512 3.657143 131.657143 171.885714 131.657143 384 299.885714 764.342857 512 764.342857M512 896C226.742857 896 0 669.257143 0 384s226.742857-512 512-512 512 226.742857 512 512-226.742857 512-512 512z"  horiz-adv-x="1024" />

    
    <glyph glyph-name="fuxuankuanggouxuan" unicode="&#59019;" d="M0 640v-512C0-10.971429 117.028571-128 256-128h512c138.971429 0 256 117.028571 256 256v512C1024 778.971429 906.971429 896 768 896h-512C117.028571 896 0 778.971429 0 640m731.428571-175.542857s0-7.314286 0 0L482.742857 237.714286c-14.628571-21.942857-43.885714-21.942857-65.828571 0L292.571429 354.742857c-21.942857 14.628571-21.942857 51.2 0 65.828572 21.942857 21.942857 51.2 21.942857 65.828571 0l95.085714-87.771429L665.6 530.285714c21.942857 21.942857 51.2 21.942857 65.828571 0 21.942857-21.942857 21.942857-51.2 0-65.828571"  horiz-adv-x="1024" />

    
    <glyph glyph-name="jianpan" unicode="&#59020;" d="M0 647.314286v-585.142857c0-43.885714 29.257143-73.142857 73.142857-73.142858h877.714286c43.885714 0 73.142857 29.257143 73.142857 73.142858v585.142857c0 43.885714-29.257143 73.142857-73.142857 73.142857H73.142857c-43.885714 0-73.142857-29.257143-73.142857-73.142857z m460.8-51.2h102.4v-102.4H460.8V596.114286z m0-160.914286h102.4v-102.4H460.8V435.2zM307.2 596.114286h102.4v-102.4H307.2V596.114286z m0-160.914286h102.4v-102.4H307.2V435.2z m-51.2-102.4H153.6V435.2h102.4v-102.4z m0 153.6H153.6V596.114286h102.4v-109.714286z m460.8-365.714286H307.2V230.4h409.6v-109.714286z m0 212.114286H614.4V435.2h102.4v-102.4z m0 153.6H614.4V596.114286h102.4v-109.714286z m153.6-153.6h-102.4V435.2h102.4v-102.4z m0 153.6h-102.4V596.114286h102.4v-109.714286z"  horiz-adv-x="1024" />

    
    <glyph glyph-name="baocunchenggong" unicode="&#58973;" d="M738.742857 705.828571l-365.714286-519.314285-73.142857 175.542857H190.171429l124.342857-299.885714h117.028571l402.285714 563.2-95.085714 80.457142zM512 896c285.257143 0 512-226.742857 512-512s-226.742857-512-512-512-512 226.742857-512 512 226.742857 512 512 512z"  horiz-adv-x="1024" />

    
    <glyph glyph-name="baocunshibai" unicode="&#58993;" d="M738.742857 683.885714L512 457.142857 285.257143 683.885714l-73.142857-73.142857L438.857143 384l-226.742857-226.742857 73.142857-73.142857L512 310.857143l226.742857-226.742857 73.142857 73.142857L585.142857 384l226.742857 226.742857-73.142857 73.142857zM512 896c285.257143 0 512-226.742857 512-512s-226.742857-512-512-512-512 226.742857-512 512 226.742857 512 512 512z"  horiz-adv-x="1024" />

    
    <glyph glyph-name="tuobing" unicode="&#58964;" d="M636.342857 896v-73.142857h-292.571428V896h292.571428z m0-160.914286v-73.142857h-292.571428v73.142857h292.571428z m0-153.6v-73.142857h-292.571428v73.142857h292.571428z m0-160.914285v-73.142858h-292.571428v73.142858h292.571428z m0-160.914286v-73.142857h-292.571428v73.142857h292.571428z m0-153.6v-73.142857h-292.571428v73.142857h292.571428z m0-160.914286v-73.142857h-292.571428v73.142857h292.571428z"  horiz-adv-x="1024" />

    
    <glyph glyph-name="LOGO" unicode="&#58944;" d="M855.771429 896H168.228571C124.342857 896 80.457143 874.057143 51.2 844.8c-29.257143-29.257143-51.2-73.142857-51.2-117.028571V-128h117.028571V610.742857c0 43.885714 21.942857 87.771429 51.2 117.028572 29.257143 29.257143 73.142857 51.2 117.028572 51.2h453.485714c43.885714 0 87.771429-21.942857 117.028572-51.2 29.257143-29.257143 51.2-73.142857 51.2-117.028572V384c0-43.885714-21.942857-87.771429-51.2-117.028571-29.257143-29.257143-73.142857-51.2-117.028572-51.2H453.485714v-58.514286c0-14.628571 7.314286-29.257143 14.628572-43.885714 7.314286-7.314286 21.942857-14.628571 36.571428-14.628572h117.028572c29.257143 0 58.514286-21.942857 58.514285-58.514286 0-29.257143-21.942857-58.514286-58.514285-58.514285H512c-43.885714 0-87.771429 21.942857-117.028571 51.2-29.257143 29.257143-51.2 73.142857-51.2 124.342857V384c0 43.885714 21.942857 87.771429 51.2 124.342857 29.257143 29.257143 73.142857 51.2 117.028571 51.2h117.028571c29.257143-7.314286 51.2-29.257143 51.2-58.514286s-21.942857-58.514286-58.514285-58.514285H512c-14.628571 0-29.257143-7.314286-36.571429-14.628572-14.628571-14.628571-21.942857-29.257143-21.942857-43.885714v-58.514286h285.257143c14.628571 0 29.257143 7.314286 36.571429 14.628572 7.314286 7.314286 14.628571 21.942857 14.628571 36.571428V610.742857c0 14.628571-7.314286 29.257143-14.628571 36.571429-7.314286 7.314286-21.942857 14.628571-36.571429 14.628571H285.257143c-14.628571 0-29.257143-7.314286-36.571429-14.628571-14.628571-7.314286-21.942857-21.942857-21.942857-36.571429V-128h629.028572c43.885714 0 87.771429 21.942857 117.028571 51.2 29.257143 29.257143 51.2 73.142857 51.2 117.028571V727.771429c0 43.885714-21.942857 87.771429-51.2 124.342857-29.257143 21.942857-73.142857 43.885714-117.028571 43.885714m0-906.971429c-29.257143 0-58.514286 21.942857-58.514286 58.514286 0 29.257143 21.942857 58.514286 58.514286 58.514286 29.257143 0 58.514286-21.942857 58.514285-58.514286s-29.257143-58.514286-58.514285-58.514286"  horiz-adv-x="1024" />

    
    <glyph glyph-name="guanbi" unicode="&#58937;" d="M892.342857 896L512 515.657143 124.342857 896 0 764.342857 380.342857 384 0 3.657143 124.342857-128 512 259.657143l380.342857-387.657143 131.657143 131.657143L636.342857 384 1024 764.342857z"  horiz-adv-x="1024" />

    
    <glyph glyph-name="suoding" unicode="&#58938;" d="M950.857143 362.057143V-54.857143c0-21.942857-7.314286-36.571429-21.942857-51.2-14.628571-14.628571-29.257143-21.942857-51.2-21.942857H146.285714c-21.942857 0-36.571429 7.314286-51.2 21.942857-14.628571 14.628571-21.942857 29.257143-21.942857 51.2V362.057143c0 21.942857 7.314286 36.571429 21.942857 51.2 14.628571 7.314286 29.257143 14.628571 51.2 14.628571h21.942857V566.857143c0 87.771429 36.571429 168.228571 102.4 226.742857C336.457143 866.742857 416.914286 896 512 896c95.085714 0 175.542857-29.257143 241.371429-95.085714 65.828571-65.828571 102.4-138.971429 102.4-226.742857v-138.971429h21.942857c21.942857 0 36.571429-7.314286 51.2-21.942857 14.628571-14.628571 21.942857-36.571429 21.942857-51.2z m-636.342857 65.828571h387.657143V566.857143c0 51.2-21.942857 95.085714-58.514286 131.657143-29.257143 36.571429-80.457143 58.514286-131.657143 58.514285s-102.4-14.628571-138.971429-51.2c-36.571429-43.885714-58.514286-80.457143-58.514285-138.971428v-138.971429z"  horiz-adv-x="1024" />

    
    <glyph glyph-name="yibianji" unicode="&#58943;" d="M424.228571 896v-365.714286L87.771429 713.142857 0 566.857143 329.142857 384 0 201.142857l87.771429-146.285714L424.228571 237.714286v-365.714286h175.542858V237.714286l336.457142-182.857143 87.771429 146.285714L694.857143 384 1024 566.857143l-87.771429 146.285714L599.771429 530.285714V896z"  horiz-adv-x="1024" />

    
    <glyph glyph-name="daochulishi" unicode="&#58936;" d="M863.085714 120.685714c0-14.628571-14.628571-29.257143-29.257143-29.257143h-58.514285c-14.628571 0-29.257143 14.628571-29.257143 29.257143V208.457143c0 14.628571 14.628571 29.257143 29.257143 29.257143s29.257143-14.628571 29.257143-29.257143v-58.514286h29.257142c14.628571 0 29.257143-14.628571 29.257143-29.257143zM863.085714 120.685714c0-14.628571-14.628571-29.257143-29.257143-29.257143h-58.514285c-14.628571 0-29.257143 14.628571-29.257143 29.257143V208.457143c0 14.628571 14.628571 29.257143 29.257143 29.257143s29.257143-14.628571 29.257143-29.257143v-58.514286h29.257142c14.628571 0 29.257143-14.628571 29.257143-29.257143zM863.085714 120.685714c0-14.628571-14.628571-29.257143-29.257143-29.257143h-58.514285c-14.628571 0-29.257143 14.628571-29.257143 29.257143V208.457143c0 14.628571 14.628571 29.257143 29.257143 29.257143s29.257143-14.628571 29.257143-29.257143v-58.514286h29.257142c14.628571 0 29.257143-14.628571 29.257143-29.257143zM775.314286 369.371429c-138.971429 0-248.685714-109.714286-248.685715-248.685715S636.342857-128 775.314286-128s248.685714 109.714286 248.685714 248.685714-109.714286 248.685714-248.685714 248.685715z m0-424.228572c-95.085714 0-175.542857 80.457143-175.542857 175.542857 0 95.085714 80.457143 175.542857 175.542857 175.542857 95.085714 0 175.542857-80.457143 175.542857-175.542857 0-95.085714-80.457143-175.542857-175.542857-175.542857zM855.771429 596.114286H570.514286V881.371429zM482.742857 508.342857V896H87.771429C36.571429 896 0 859.428571 0 808.228571v-855.771428c0-43.885714 36.571429-80.457143 87.771429-80.457143h504.685714c-80.457143 58.514286-124.342857 146.285714-124.342857 248.685714 0 168.228571 138.971429 307.2 307.2 307.2 36.571429 0 73.142857-7.314286 102.4-14.628571V508.342857H482.742857z m-241.371428 36.571429L80.457143 369.371429h102.4c0-21.942857 7.314286-270.628571-87.771429-292.571429 190.171429 0 197.485714 263.314286 197.485715 292.571429h102.4L241.371429 544.914286z"  horiz-adv-x="1024" />

    
    <glyph glyph-name="yonghuID" unicode="&#59011;" d="M504.685714 354.742857c146.285714 0 270.628571 124.342857 270.628572 270.628572S658.285714 896 504.685714 896c-146.285714 0-270.628571-124.342857-270.628571-270.628571s117.028571-270.628571 270.628571-270.628572zM402.285714 310.857143C212.114286 310.857143 73.142857 179.2 73.142857-10.971429v-21.942857C73.142857-128 219.428571-128 409.6-128h197.485714c182.857143 0 336.457143 0 336.457143 95.085714v21.942857C950.857143 179.2 811.885714 310.857143 621.714286 310.857143h-219.428572z"  horiz-adv-x="1024" />

    
    <glyph glyph-name="shanchu" unicode="&#59013;" d="M629.028571 830.171429H394.971429l-7.314286-58.514286h248.685714L629.028571 830.171429z m7.314286 65.828571c21.942857 0 43.885714-21.942857 51.2-43.885714l14.628572-80.457143h87.771428c43.885714 0 87.771429-43.885714 87.771429-95.085714v-29.257143H146.285714V676.571429c0 51.2 43.885714 95.085714 87.771429 95.085714h87.771428L336.457143 852.114286c7.314286 21.942857 29.257143 43.885714 51.2 43.885714h248.685714zM804.571429 574.171429c36.571429 0 58.514286-29.257143 58.514285-65.828572l-58.514285-570.514286c0-36.571429-29.257143-65.828571-65.828572-65.828571H285.257143c-36.571429 0-65.828571 29.257143-65.828572 65.828571l-51.2 577.828572c0 36.571429 21.942857 65.828571 58.514286 65.828571H804.571429z m-416.914286-570.514286H299.885714l-29.257143 446.171428h124.342858v-446.171428z m65.828571 0h124.342857V449.828571H453.485714v-446.171428z m270.628572 0H636.342857V449.828571h124.342857l-36.571428-446.171428z"  horiz-adv-x="1024" />

    
    <glyph glyph-name="qita" unicode="&#59006;" d="M921.6 522.971429c58.514286 0 102.4-43.885714 102.4-102.4s-43.885714-102.4-102.4-102.4c-58.514286 0-102.4 43.885714-102.4 102.4s43.885714 102.4 102.4 102.4zM512 522.971429c58.514286 0 102.4-43.885714 102.4-102.4S570.514286 318.171429 512 318.171429c-58.514286 0-102.4 43.885714-102.4 102.4S453.485714 522.971429 512 522.971429z m-409.6 0c58.514286 0 102.4-43.885714 102.4-102.4s-43.885714-102.4-102.4-102.4C43.885714 318.171429 0 362.057143 0 420.571429s43.885714 102.4 102.4 102.4z"  horiz-adv-x="1024" />

    
    <glyph glyph-name="banben" unicode="&#59007;" d="M994.742857 559.542857c-7.314286 14.628571-7.314286 14.628571-7.314286 21.942857-7.314286 7.314286-7.314286 21.942857-14.628571 29.257143-14.628571 29.257143-65.828571 80.457143-146.285714 80.457143-43.885714 0-102.4-14.628571-138.971429-73.142857l-7.314286-7.314286-175.542857-358.4-160.914285 358.4c-14.628571 21.942857-43.885714 36.571429-65.828572 21.942857-29.257143-7.314286-36.571429-43.885714-29.257143-65.828571l175.542857-373.028572c21.942857-43.885714 51.2-65.828571 87.771429-65.828571s58.514286 21.942857 80.457143 65.828571l175.542857 373.028572c7.314286 7.314286 14.628571 21.942857 58.514286 21.942857 43.885714 0 58.514286-21.942857 58.514285-29.257143v-7.314286s7.314286-7.314286 7.314286-14.628571 7.314286-14.628571 7.314286-21.942857c14.628571-43.885714 21.942857-95.085714 21.942857-138.971429 0-109.714286-36.571429-204.8-117.028571-292.571428-87.771429-80.457143-182.857143-124.342857-292.571429-124.342857-117.028571 0-212.114286 36.571429-292.571429 117.028571C138.971429 171.885714 102.4 266.971429 102.4 384S138.971429 596.114286 219.428571 676.571429c65.828571 65.828571 146.285714 102.4 234.057143 117.028571h109.714286c7.314286 0 58.514286-7.314286 102.4-21.942857 14.628571-7.314286 29.257143-7.314286 36.571429 0 14.628571 7.314286 21.942857 14.628571 29.257142 29.257143 7.314286 14.628571 0 21.942857 0 36.571428-7.314286 14.628571-14.628571 21.942857-29.257142 29.257143C650.971429 881.371429 585.142857 896 570.514286 896H446.171429c-117.028571-14.628571-219.428571-65.828571-292.571429-146.285714C51.2 647.314286 0 530.285714 0 384s51.2-263.314286 146.285714-365.714286c102.4-102.4 219.428571-146.285714 365.714286-146.285714 138.971429 0 256 51.2 365.714286 153.6 95.085714 102.4 146.285714 226.742857 146.285714 365.714286 0 51.2-7.314286 109.714286-29.257143 168.228571z"  horiz-adv-x="1024" />

    
    <glyph glyph-name="shouquan" unicode="&#59008;" d="M1009.371429 288.914286c21.942857-36.571429 14.628571-80.457143-29.257143-124.342857-36.571429-36.571429-80.457143-65.828571-117.028572-87.771429-7.314286 0-7.314286-7.314286-14.628571-7.314286l-29.257143-14.628571c-58.514286-36.571429-124.342857-80.457143-190.171429-95.085714-14.628571-7.314286-29.257143-7.314286-43.885714-7.314286-58.514286 0-109.714286 21.942857-160.914286 43.885714-14.628571 7.314286-29.257143 14.628571-43.885714 14.628572-14.628571 7.314286-36.571429 14.628571-51.2 21.942857-29.257143 14.628571-65.828571 21.942857-95.085714 36.571428-7.314286-29.257143-36.571429-51.2-65.828572-51.2H65.828571c-36.571429 0-65.828571 29.257143-65.828571 65.828572V588.8c0 36.571429 29.257143 65.828571 65.828571 65.828571h109.714286c36.571429 0 65.828571-29.257143 65.828572-65.828571v-36.571429h14.628571c36.571429 0 73.142857-21.942857 102.4-36.571428 7.314286-7.314286 14.628571-7.314286 21.942857-14.628572 58.514286-29.257143 124.342857-58.514286 182.857143-87.771428 14.628571 0 21.942857 0 36.571429-7.314286 29.257143-14.628571 58.514286-29.257143 80.457142-51.2 7.314286-7.314286 14.628571-29.257143 21.942858-43.885714 0-14.628571 7.314286-29.257143 7.314285-29.257143s7.314286 0 21.942857 7.314286c14.628571 7.314286 29.257143 14.628571 36.571429 21.942857 7.314286 7.314286 14.628571 7.314286 21.942857 14.628571 43.885714 21.942857 80.457143 29.257143 117.028572 29.257143 43.885714-14.628571 80.457143-36.571429 102.4-65.828571zM73.142857 91.428571h102.4V588.8H73.142857V91.428571z m877.714286 131.657143c7.314286 14.628571 7.314286 21.942857 0 36.571429-14.628571 14.628571-51.2 21.942857-73.142857 21.942857-21.942857 0-51.2-14.628571-73.142857-29.257143-7.314286-7.314286-21.942857-14.628571-29.257143-14.628571-7.314286 0-14.628571-7.314286-21.942857-14.628572-58.514286-29.257143-109.714286-58.514286-175.542858-36.571428-51.2 7.314286-95.085714 21.942857-131.657142 36.571428-65.828571 21.942857-95.085714 43.885714-95.085715 58.514286 0 14.628571 0 21.942857 14.628572 29.257143 29.257143 14.628571 102.4-21.942857 160.914285-51.2 21.942857-14.628571 51.2-21.942857 58.514286-29.257143 21.942857 0 43.885714 7.314286 51.2 21.942857 7.314286 14.628571 0 36.571429-21.942857 58.514286-29.257143 21.942857-65.828571 43.885714-102.4 58.514286-14.628571 7.314286-29.257143 14.628571-43.885714 14.628571-7.314286 7.314286-14.628571 14.628571-21.942857 14.628571-51.2 29.257143-102.4 51.2-153.6 73.142858 0 0-7.314286 0-7.314286 7.314285-14.628571 0-21.942857 7.314286-29.257143 7.314286-7.314286 0-7.314286 0-14.628571-7.314286v-329.142857c87.771429-36.571429 168.228571-73.142857 234.057142-95.085714 7.314286 0 14.628571-7.314286 21.942858-7.314286 36.571429-14.628571 80.457143-36.571429 124.342857-21.942857 51.2 14.628571 102.4 43.885714 146.285714 73.142857 7.314286 7.314286 21.942857 14.628571 29.257143 14.628572 7.314286 7.314286 14.628571 7.314286 29.257143 14.628571 43.885714 21.942857 109.714286 58.514286 124.342857 95.085714z m-58.514286 241.371429l-51.2 36.571428 36.571429 43.885715v14.628571c0 7.314286 0 7.314286-7.314286 7.314286l-29.257143 21.942857c-7.314286 7.314286-14.628571 7.314286-21.942857 0l-36.571429-43.885714-73.142857 58.514285c7.314286 14.628571 7.314286 29.257143 14.628572 43.885715 7.314286 80.457143-51.2 153.6-138.971429 168.228571-36.571429 0-73.142857-7.314286-109.714286-29.257143-29.257143-29.257143-51.2-58.514286-58.514285-102.4 0-36.571429 7.314286-73.142857 29.257143-109.714285 51.2-65.828571 146.285714-80.457143 212.114285-29.257143l182.857143-138.971429s7.314286-7.314286 14.628572 0c7.314286 0 7.314286 0 7.314285 7.314286l21.942857 29.257143V457.142857c14.628571 0 7.314286 7.314286 7.314286 7.314286zM650.971429 654.628571c0-21.942857-14.628571-36.571429-29.257143-51.2-14.628571-14.628571-36.571429-14.628571-51.2-14.628571h-7.314286c-21.942857 0-43.885714 14.628571-51.2 29.257143-21.942857 14.628571-21.942857 36.571429-21.942857 58.514286 7.314286 43.885714 43.885714 73.142857 87.771428 65.828571 21.942857 0 36.571429-14.628571 51.2-29.257143 14.628571-14.628571 21.942857-36.571429 21.942858-58.514286z"  horiz-adv-x="1024" />

    
    <glyph glyph-name="shujuku" unicode="&#59009;" d="M475.428571 530.285714h73.142858c21.942857 0 36.571429-14.628571 36.571428-36.571428s-14.628571-36.571429-36.571428-36.571429h-73.142858c-21.942857 0-36.571429 14.628571-36.571428 36.571429s14.628571 36.571429 36.571428 36.571428z m0-146.285714h73.142858c21.942857 0 36.571429-14.628571 36.571428-36.571429s-14.628571-36.571429-36.571428-36.571428h-73.142858c-21.942857 0-36.571429 14.628571-36.571428 36.571428s14.628571 36.571429 36.571428 36.571429z m0-146.285714h73.142858c21.942857 0 36.571429-14.628571 36.571428-36.571429s-14.628571-36.571429-36.571428-36.571428h-73.142858c-21.942857 0-36.571429 14.628571-36.571428 36.571428s14.628571 36.571429 36.571428 36.571429z m0-146.285715h73.142858c21.942857 0 36.571429-14.628571 36.571428-36.571428s-14.628571-36.571429-36.571428-36.571429h-73.142858c-21.942857 0-36.571429 14.628571-36.571428 36.571429s14.628571 36.571429 36.571428 36.571428zM73.142857-54.857143h73.142857V457.142857H73.142857v-512z m-73.142857 0V457.142857c0 43.885714 29.257143 73.142857 73.142857 73.142857h73.142857c43.885714 0 73.142857-29.257143 73.142857-73.142857v-512c0-43.885714-29.257143-73.142857-73.142857-73.142857H73.142857c-43.885714 0-73.142857 29.257143-73.142857 73.142857z m877.714286 0h73.142857V457.142857h-73.142857v-512z m-73.142857 0V457.142857c0 43.885714 29.257143 73.142857 73.142857 73.142857h73.142857c21.942857 0 36.571429-7.314286 51.2-21.942857 14.628571-14.628571 21.942857-29.257143 21.942857-51.2v-512c0-21.942857-7.314286-36.571429-21.942857-51.2-14.628571-14.628571-29.257143-21.942857-51.2-21.942857h-73.142857c-43.885714 0-73.142857 29.257143-73.142857 73.142857z m-438.857143 0h292.571428V822.857143H365.714286v-877.714286z m-73.142857 0V822.857143c0 43.885714 29.257143 73.142857 73.142857 73.142857h292.571428c43.885714 0 73.142857-29.257143 73.142857-73.142857v-877.714286c0-43.885714-29.257143-73.142857-73.142857-73.142857H365.714286c-43.885714 0-73.142857 29.257143-73.142857 73.142857z"  horiz-adv-x="1024" />

    
    <glyph glyph-name="API" unicode="&#59010;" d="M182.857143 581.485714c-14.628571 0-29.257143-7.314286-43.885714-14.628571-7.314286-14.628571-14.628571-21.942857-14.628572-43.885714v-117.028572h124.342857V522.971429c0 14.628571-7.314286 29.257143-14.628571 36.571428-21.942857 14.628571-36.571429 21.942857-51.2 21.942857zM1024 640v-512h-124.342857v512H1024z m-775.314286 0c36.571429 0 58.514286-14.628571 87.771429-36.571429 21.942857-21.942857 29.257143-43.885714 29.257143-80.457142v-394.971429H248.685714V354.742857H124.342857v-226.742857H0V522.971429c0 36.571429 14.628571 58.514286 36.571429 80.457142 21.942857 21.942857 51.2 36.571429 87.771428 36.571429h124.342857z m446.171429 0c36.571429 0 58.514286-14.628571 87.771428-36.571429 21.942857-21.942857 36.571429-51.2 36.571429-80.457142v-58.514286c0-29.257143-14.628571-58.514286-36.571429-80.457143-21.942857-14.628571-51.2-29.257143-87.771428-29.257143H570.514286v-226.742857H453.485714v512h241.371429zM570.514286 413.257143h58.514285c14.628571 0 29.257143 7.314286 43.885715 14.628571 14.628571 14.628571 21.942857 29.257143 21.942857 43.885715v51.2c0 14.628571-7.314286 29.257143-14.628572 36.571428-14.628571 14.628571-29.257143 21.942857-43.885714 21.942857h-65.828571v-168.228571z"  horiz-adv-x="1024" />

    
    <glyph glyph-name="fangda" unicode="&#59003;" d="M504.685714 735.085714c29.257143 0 51.2-21.942857 51.2-51.2v-263.314285h263.314286c29.257143 0 51.2-21.942857 51.2-51.2s-21.942857-51.2-51.2-51.2H555.885714v-263.314286c0-29.257143-21.942857-51.2-51.2-51.2s-51.2 21.942857-51.2 51.2V318.171429H190.171429c-29.257143 0-51.2 21.942857-51.2 51.2s21.942857 51.2 51.2 51.2h263.314285V683.885714c0 29.257143 21.942857 51.2 51.2 51.2z"  horiz-adv-x="1024" />

    
    <glyph glyph-name="suoxiao" unicode="&#59004;" d="M512 896C226.742857 896 0 669.257143 0 384s226.742857-512 512-512 512 226.742857 512 512-226.742857 512-512 512m204.8-563.2H307.2c-29.257143 0-51.2 21.942857-51.2 51.2 0 29.257143 21.942857 51.2 51.2 51.2h409.6c29.257143 0 51.2-21.942857 51.2-51.2 0-29.257143-21.942857-51.2-51.2-51.2"  horiz-adv-x="1024" />

    
    <glyph glyph-name="zihaotiaozheng" unicode="&#59005;" d="M972.8 574.171429c-7.314286 51.2-14.628571 95.085714-29.257143 117.028571-14.628571 29.257143-36.571429 43.885714-51.2 51.2-21.942857 7.314286-43.885714 7.314286-73.142857 7.314286H724.114286v-643.657143c0-21.942857 0-43.885714 7.314285-58.514286 7.314286-14.628571 14.628571-21.942857 29.257143-29.257143 14.628571-7.314286 43.885714-14.628571 73.142857-14.628571v-58.514286H446.171429v58.514286c43.885714 0 80.457143 7.314286 95.085714 21.942857 14.628571 14.628571 21.942857 43.885714 21.942857 80.457143V749.714286H475.428571c-29.257143 0-58.514286 0-80.457142-7.314286-14.628571-7.314286-36.571429-21.942857-51.2-51.2-14.628571-21.942857-29.257143-65.828571-29.257143-117.028571h-51.2V822.857143H1024v-248.685714h-51.2zM416.914286 288.914286h-29.257143c0 29.257143-7.314286 51.2-14.628572 65.828571-7.314286 14.628571-21.942857 21.942857-29.257142 29.257143H256v-351.085714c0-14.628571 0-21.942857 7.314286-29.257143 0-7.314286 7.314286-14.628571 14.628571-14.628572 7.314286-7.314286 21.942857-7.314286 43.885714-7.314285v-36.571429h-219.428571v36.571429c29.257143 0 43.885714 7.314286 51.2 14.628571 7.314286 7.314286 14.628571 21.942857 14.628571 43.885714V384H73.142857c-14.628571 0-21.942857-14.628571-29.257143-29.257143-7.314286-14.628571-14.628571-36.571429-14.628571-65.828571H0V427.885714h416.914286v-138.971428z"  horiz-adv-x="1024" />

    
    <glyph glyph-name="chexiao" unicode="&#58998;" d="M855.771429-128c117.028571 204.8 131.657143 519.314286-321.828572 512v-256L146.285714 515.657143 533.942857 896v-248.685714c548.571429 14.628571 607.085714-475.428571 321.828572-775.314286"  horiz-adv-x="1024" />

    
    </font>
</defs>
</svg>
